<svg width="134" height="157" viewBox="0 0 134 157" fill="none" xmlns="http://www.w3.org/2000/svg">
<g id="Group 18318">
<g id="Clip path group">
<mask id="mask0_99_3919" style="mask-type:luminance" maskUnits="userSpaceOnUse" x="20" y="0" width="94" height="94">
<g id="clippath">
<path id="Vector" d="M73.7494 2.10976L46.89 29.0379C45.8082 30.1224 44.0513 30.1224 42.9695 29.0379C41.8877 27.9533 41.8877 26.1919 42.9695 25.1073L50.5065 17.551C53.29 14.7604 53.29 10.2361 50.5065 7.44551C47.7231 4.65493 43.2103 4.65493 40.4268 7.44551L23.2839 24.6323C20.5004 27.4229 20.5004 31.9472 23.2839 34.7378C26.0673 37.5284 30.5801 37.5284 33.3636 34.7378L34.9942 33.0991C36.076 32.0145 37.8329 32.0145 38.9147 33.0991C39.9965 34.1836 39.9965 35.945 38.9147 37.0296L22.0876 53.9037C19.3041 56.6943 19.3041 61.2186 22.0876 64.0092C24.8711 66.7998 29.3838 66.7998 32.1673 64.0092L59.6979 36.4082C60.7797 35.3236 62.5642 35.3513 63.646 36.4359C64.5541 37.3463 64.6923 38.7317 64.0724 39.7964L32.9293 71.0193C30.1458 73.8099 30.1458 78.3342 32.9293 81.1247C35.7127 83.9153 40.2255 83.9153 43.0089 81.1247L56.1721 67.9279C57.2579 67.1204 58.7937 67.1995 59.7768 68.1852C60.8586 69.2697 60.8902 71.0589 59.8045 72.1434L50.1709 81.8016C47.3875 84.5922 47.3875 89.1165 50.1709 91.9071C52.9544 94.6976 57.4671 94.6976 60.2506 91.9071L87.11 64.979C88.1918 63.8944 89.9487 63.8944 91.0305 64.979C92.1123 66.0635 92.1123 67.825 91.0305 68.9095L89.3723 70.572C86.5888 73.3626 86.5888 77.8869 89.3723 80.6775C92.1558 83.468 96.6685 83.468 99.452 80.6775L110.716 69.3845C113.5 66.5939 113.5 62.0696 110.716 59.279C107.933 56.4885 103.42 56.4885 100.636 59.279L99.0019 60.9178C97.9201 62.0023 96.1632 62.0023 95.0814 60.9178C93.9996 59.8332 93.9996 58.0718 95.0814 56.9872L111.912 40.1131C114.696 37.3225 114.696 32.7982 111.912 30.0076C109.129 27.2171 104.616 27.2171 101.833 30.0076L67.7798 64.1477C66.698 65.2323 64.9134 65.2046 63.8316 64.1161C62.8485 63.1304 62.7695 61.5907 63.575 60.5022L85.2386 38.7831C88.022 35.9925 88.022 31.4682 85.2386 28.6777C82.4551 25.8871 77.9424 25.8871 75.1589 28.6777L71.0607 32.7864C69.9986 33.4078 68.6168 33.2732 67.7087 32.3589C66.6269 31.2743 66.5993 29.4852 67.6811 28.4006L83.8409 12.1994C86.6244 9.40881 86.6244 4.88451 83.8409 2.09392C82.4512 0.700614 80.6232 0 78.7991 0C76.975 0 75.151 0.696656 73.7573 2.09392" fill="white"/>
</g>
</mask>
<g mask="url(#mask0_99_3919)">
<g id="Group">
<path id="Vector_2" d="M48.9663 -44.2534L-24.4141 65.2688L85.0417 138.98L158.422 29.4582L48.9663 -44.2534Z" fill="url(#paint0_linear_99_3919)"/>
</g>
</g>
</g>
<g id="Livello_1-2">
<path id="Vector_3" d="M24.012 123.429C24.1373 126.197 26.5531 127.604 28.6166 127.604C30.4529 127.604 31.8116 126.723 32.5673 125.29H35.2847C34.6308 126.8 33.6755 127.931 32.5164 128.687C31.3594 129.466 30.0007 129.844 28.6166 129.844C24.1394 129.844 21.3711 126.246 21.3711 122.624C21.3711 118.699 24.4408 115.353 28.5911 115.353C30.5527 115.353 32.3402 116.083 33.6479 117.366C35.2592 119 35.9364 121.14 35.7114 123.429H24.012ZM33.1193 121.391C32.9941 119.58 31.1832 117.542 28.5911 117.593C25.9247 117.593 24.1882 119.529 24.0629 121.391H33.1193Z" fill="#37738E"/>
<path id="Vector_4" d="M38.3034 115.754H40.7681V117.869C41.422 116.459 42.9568 115.327 45.3961 115.353C49.7735 115.404 50.9305 118.573 50.9305 121.416V129.441H48.2896V122.019C48.2896 119.554 47.3343 117.792 44.6658 117.818C42.0992 117.843 40.9167 119.452 40.9167 121.817V129.441H38.3013V115.754H38.3034Z" fill="#37738E"/>
<path id="Vector_5" d="M68.1684 127.855C68.1684 130.245 67.5655 131.78 66.5571 132.937C65.3003 134.396 63.1604 135.427 60.7955 135.427C56.9212 135.427 54.656 133.162 54.0022 130.874H57.0209C57.3224 131.476 57.851 132.031 58.5303 132.459C59.3604 133.013 60.2924 133.19 60.8953 133.19C63.1838 133.19 65.5487 131.504 65.5487 128.434V127.025C64.7441 128.56 63.084 129.842 60.6172 129.842C56.5157 129.842 53.5479 126.721 53.5479 122.647C53.5479 118.37 56.6431 115.351 60.6172 115.351C62.9057 115.351 64.7929 116.559 65.5487 118.068V115.754H68.1641V127.855H68.1684ZM56.1675 122.596C56.1675 125.163 58.0038 127.403 60.8974 127.403C62.2815 127.403 63.4385 126.874 64.2686 126.018C65.0732 125.188 65.5763 124.006 65.6018 122.673C65.6018 121.59 65.2494 120.359 64.4957 119.427C63.7421 118.472 62.5596 117.818 60.8974 117.818C58.3053 117.818 56.1675 119.754 56.1675 122.573V122.598V122.596Z" fill="#37738E"/>
<path id="Vector_6" d="M85.5317 129.441H82.9141V127.05C81.9588 128.887 79.9951 129.842 77.8318 129.842C73.4289 129.842 70.8135 126.42 70.8135 122.596C70.8135 118.421 73.8577 115.351 77.8318 115.351C80.5492 115.351 82.2857 116.86 82.9141 118.168V115.752H85.5317V129.438V129.441ZM73.431 122.647C73.4565 124.685 74.8895 127.403 78.2118 127.403C80.3008 127.403 81.7847 126.246 82.464 124.685C82.7655 124.057 82.9162 123.352 82.9417 122.647C82.9672 121.942 82.8419 121.238 82.5383 120.609C81.8845 119.026 80.3496 117.792 78.1609 117.792C75.2928 117.792 73.431 120.057 73.431 122.622V122.647Z" fill="#37738E"/>
<path id="Vector_7" d="M102.842 127.855C102.842 130.245 102.239 131.78 101.233 132.937C99.9761 134.396 97.8362 135.427 95.4713 135.427C91.5969 135.427 89.3318 133.162 88.6779 130.874H91.6967C91.9982 131.476 92.5268 132.031 93.2061 132.459C94.0362 133.013 94.9681 133.19 95.571 133.19C97.8595 133.19 100.224 131.504 100.224 128.434V127.025C99.4199 128.56 97.7598 129.842 95.2929 129.842C91.1915 129.842 88.2236 126.721 88.2236 122.647C88.2236 118.37 91.3188 115.351 95.2929 115.351C97.5814 115.351 99.4687 116.559 100.224 118.068V115.754H102.84V127.855H102.842ZM90.8412 122.596C90.8412 125.163 92.6775 127.403 95.571 127.403C96.9552 127.403 98.1122 126.874 98.9422 126.018C99.7468 125.188 100.25 124.006 100.275 122.673C100.275 121.59 99.923 120.359 99.1694 119.427C98.4157 118.472 97.2333 117.818 95.571 117.818C92.979 117.818 90.8412 119.754 90.8412 122.573V122.598V122.596Z" fill="#37738E"/>
<path id="Vector_8" d="M105.353 123.429C105.126 121.14 105.805 119 107.417 117.366C108.724 116.083 110.512 115.353 112.473 115.353C116.624 115.353 119.693 118.699 119.693 122.624C119.693 126.248 116.925 129.844 112.448 129.844C111.064 129.844 109.705 129.466 108.548 128.687C107.391 127.931 106.434 126.8 105.78 125.29H108.497C109.253 126.725 110.612 127.604 112.448 127.604C114.511 127.604 116.925 126.195 117.053 123.429H105.353ZM117.002 121.391C116.876 119.529 115.14 117.593 112.473 117.593C109.881 117.542 108.071 119.58 107.945 121.391H117.002Z" fill="#37738E"/>
<path id="Vector_9" d="M25.349 140.1V146.649H24.5763V140.1H22.481V139.408H27.4443V140.1H25.349Z" fill="#37738E"/>
<path id="Vector_10" d="M31.9427 146.649V143.558C31.9427 142.683 31.4757 142.235 30.7221 142.235C29.9684 142.235 29.4717 142.694 29.4717 143.558V146.649H28.7393V139.408H29.4717V142.195C29.8368 141.779 30.3145 141.586 30.8749 141.586C32.0043 141.586 32.6751 142.308 32.6751 143.437V146.651H31.9427V146.649Z" fill="#37738E"/>
<path id="Vector_11" d="M34.8577 144.341C34.8577 145.439 35.3757 146.07 36.3332 146.07C36.9127 146.07 37.2481 145.898 37.6451 145.501L38.144 145.938C37.6345 146.447 37.1675 146.711 36.314 146.711C34.9915 146.711 34.1274 145.917 34.1274 144.148C34.1274 142.531 34.9108 141.586 36.1824 141.586C37.454 141.586 38.2353 142.522 38.2353 144.006V144.341H34.8598H34.8577ZM37.35 142.957C37.1568 142.499 36.7089 142.204 36.1803 142.204C35.6517 142.204 35.2038 142.499 35.0106 142.957C34.8981 143.231 34.879 143.384 34.8577 143.792H37.5008C37.4817 143.384 37.4604 143.231 37.3479 142.957" fill="#37738E"/>
<path id="Vector_12" d="M65.8754 146.711C65.1621 146.711 64.5125 146.445 64.0242 145.957C63.3428 145.276 63.3428 144.564 63.3428 143.03C63.3428 141.495 63.3428 140.781 64.0242 140.1C64.5125 139.612 65.1621 139.348 65.8754 139.348C67.1768 139.348 68.1427 140.14 68.3868 141.505H67.5929C67.3997 140.62 66.7798 140.04 65.8754 140.04C65.3978 140.04 64.9392 140.223 64.625 140.55C64.1686 141.017 64.1176 141.516 64.1176 143.032C64.1176 144.547 64.1686 145.044 64.625 145.513C64.9392 145.838 65.3978 146.021 65.8754 146.021C66.7798 146.021 67.4209 145.441 67.6141 144.556H68.3868C68.1533 145.919 67.1661 146.713 65.8754 146.713" fill="#37738E"/>
<path id="Vector_13" d="M74.1485 146.649L72.5012 143.435H70.7625V146.649H69.9897V139.408H72.7665C74.0275 139.408 74.9128 140.17 74.9128 141.422C74.9128 142.48 74.2717 143.172 73.3376 143.365L75.0571 146.649H74.1528H74.1485ZM72.6943 140.1H70.7625V142.753H72.6943C73.5371 142.753 74.1379 142.316 74.1379 141.431C74.1379 140.546 73.5371 140.098 72.6943 140.098" fill="#37738E"/>
<path id="Vector_14" d="M59.783 143.03C59.783 141.495 59.783 140.781 59.1015 140.102C58.9423 139.943 58.7619 139.809 58.5708 139.699C58.212 139.472 57.7768 139.351 57.2695 139.351C57.2652 139.351 57.2631 139.351 57.2588 139.351C57.2546 139.351 57.2525 139.351 57.2482 139.351C56.796 139.351 56.3991 139.45 56.0636 139.635C55.828 139.756 55.6093 139.911 55.4183 140.102C54.7368 140.784 54.7368 141.495 54.7368 143.032C54.7368 144.569 54.7368 145.278 55.4183 145.959C55.6242 146.165 55.862 146.331 56.121 146.454C56.4394 146.622 56.8151 146.713 57.2503 146.713C57.2546 146.713 57.2567 146.713 57.261 146.713C57.2652 146.713 57.2673 146.713 57.2716 146.713C57.7216 146.713 58.1165 146.615 58.4519 146.431C58.6897 146.309 58.9105 146.152 59.1036 145.959C59.7851 145.278 59.7851 144.567 59.7851 143.03H59.783ZM56.0191 145.511C55.9639 145.454 55.915 145.397 55.8705 145.337C55.8683 145.333 55.8641 145.329 55.862 145.324C55.845 145.301 55.828 145.278 55.8131 145.252C55.8046 145.24 55.7983 145.227 55.7898 145.216C55.5435 144.8 55.5096 144.24 55.5096 143.03C55.5096 141.514 55.5605 141.015 56.0169 140.548C56.329 140.227 56.7791 140.045 57.2503 140.041C57.728 140.041 58.1844 140.223 58.4986 140.548C58.5538 140.605 58.6026 140.663 58.6472 140.722C58.6493 140.726 58.6536 140.73 58.6557 140.735C58.6727 140.758 58.6897 140.781 58.7045 140.807C58.713 140.82 58.7194 140.832 58.7279 140.843C58.9742 141.259 59.0081 141.82 59.0081 143.03C59.0081 144.545 58.9572 145.044 58.5007 145.511C58.1887 145.832 57.7386 146.014 57.2673 146.019C56.7897 146.019 56.3332 145.836 56.0191 145.511Z" fill="#37738E"/>
<path id="Vector_15" d="M52.5797 146.649L50.9323 143.435H49.1936V146.649H48.4209V139.408H51.1977C52.4587 139.408 53.3439 140.17 53.3439 141.422C53.3439 142.48 52.7028 143.172 51.7687 143.365L53.4883 146.649H52.5839H52.5797ZM51.1255 140.1H49.1936V142.753H51.1255C51.9683 142.753 52.5691 142.316 52.5691 141.431C52.5691 140.546 51.9683 140.098 51.1255 140.098" fill="#37738E"/>
<path id="Vector_16" d="M44.6594 143.435H42.9207V146.649H42.1479V139.408H44.9247C46.1857 139.408 47.071 140.17 47.071 141.422C47.071 142.48 46.4299 143.172 45.4958 143.365C45.4958 143.365 45.0287 143.435 44.6615 143.435H44.6594ZM44.8525 140.1H42.9207V142.753H44.8525C45.6953 142.753 46.2961 142.316 46.2961 141.431C46.2961 140.546 45.6953 140.098 44.8525 140.098" fill="#37738E"/>
<path id="Vector_17" d="M82.0354 146.649V141.146L80.0526 145.511H79.3902L77.3777 141.146V146.649H76.605V139.408H77.3777L79.7363 144.543L82.0354 139.408H82.8081V146.649H82.0354Z" fill="#37738E"/>
<path id="Vector_18" d="M31.4015 156.597C30.5269 156.597 30.1299 156.028 30.1299 155.266V149.358H30.8623V155.236C30.8623 155.725 31.0257 155.969 31.5331 155.969H31.9301V156.599H31.4015V156.597Z" fill="#37738E"/>
<path id="Vector_19" d="M36.1507 156.597V156.119C35.7431 156.525 35.3779 156.659 34.7071 156.659C34.0363 156.659 33.6095 156.525 33.2932 156.2C33.0491 155.956 32.9175 155.58 32.9175 155.183C32.9175 154.309 33.5268 153.74 34.6455 153.74H36.1507V153.262C36.1507 152.53 35.7834 152.164 34.8684 152.164C34.2273 152.164 33.9025 152.317 33.6074 152.733L33.1085 152.277C33.5565 151.697 34.0639 151.534 34.8791 151.534C36.2229 151.534 36.8831 152.113 36.8831 153.203V156.599H36.1507V156.597ZM36.1507 154.289H34.7474C33.9959 154.289 33.6287 154.595 33.6287 155.175C33.6287 155.754 33.9853 156.028 34.7771 156.028C35.2039 156.028 35.5796 155.998 35.8959 155.693C36.0679 155.529 36.1507 155.245 36.1507 154.829V154.289Z" fill="#37738E"/>
<path id="Vector_20" d="M39.9655 156.597C39.1121 156.597 38.6832 155.998 38.6832 155.255V152.184H38.0527V151.623H38.6832V150.056H39.4156V151.623H40.4835V152.184H39.4156V155.234C39.4156 155.693 39.6301 155.967 40.0971 155.967H40.4835V156.597H39.9655Z" fill="#37738E"/>
<path id="Vector_21" d="M42.9653 152.183V156.597H42.2329V152.183H41.5918V151.625H42.2329V150.678C42.2329 149.935 42.649 149.337 43.5045 149.337H44.0331V149.967H43.6362C43.1691 149.967 42.9653 150.241 42.9653 150.7V151.625H44.0331V152.183H42.9653Z" fill="#37738E"/>
<path id="Vector_22" d="M48.4124 156.09C48.0664 156.436 47.5887 156.659 46.9794 156.659C46.3702 156.659 45.8904 156.436 45.5465 156.09C45.037 155.572 44.9351 154.869 44.9351 154.096C44.9351 153.324 45.037 152.621 45.5465 152.103C45.8925 151.757 46.3702 151.534 46.9794 151.534C47.5887 151.534 48.0664 151.757 48.4124 152.103C48.9198 152.621 49.0238 153.324 49.0238 154.096C49.0238 154.869 48.9219 155.572 48.4124 156.09ZM47.8944 152.551C47.6609 152.317 47.334 152.184 46.9794 152.184C46.6249 152.184 46.3086 152.315 46.0751 152.551C45.7099 152.916 45.6675 153.538 45.6675 154.096C45.6675 154.655 45.7078 155.277 46.0751 155.642C46.3086 155.875 46.6249 156.009 46.9794 156.009C47.334 156.009 47.6609 155.877 47.8944 155.642C48.2595 155.275 48.2914 154.655 48.2914 154.096C48.2914 153.538 48.2617 152.916 47.8944 152.551Z" fill="#37738E"/>
<path id="Vector_23" d="M53.3271 152.551C53.0533 152.277 52.8495 152.183 52.4631 152.183C51.7307 152.183 51.2637 152.763 51.2637 153.525V156.595H50.5312V151.591H51.2637V152.203C51.5375 151.786 52.0873 151.532 52.6669 151.532C53.1446 151.532 53.5118 151.644 53.8663 151.999L53.3271 152.549V152.551Z" fill="#37738E"/>
<path id="Vector_24" d="M61.3921 156.597V153.517C61.3921 152.631 60.9144 152.184 60.1608 152.184C59.4071 152.184 58.9104 152.642 58.9104 153.434V156.597H58.178V153.517C58.178 152.631 57.7003 152.184 56.9467 152.184C56.193 152.184 55.6963 152.642 55.6963 153.517V156.597H54.9639V151.593H55.6963V152.143C56.0529 151.736 56.5497 151.534 57.1101 151.534C57.8022 151.534 58.3414 151.818 58.645 152.368C59.0314 151.818 59.5918 151.534 60.2924 151.534C60.8316 151.534 61.2795 151.706 61.5831 152.001C61.9398 152.347 62.1223 152.814 62.1223 153.394V156.597H61.3899H61.3921Z" fill="#37738E"/>
<path id="Vector_25" d="M67.3276 152.183V156.597H66.5952V152.183H65.9541V151.625H66.5952V150.678C66.5952 149.935 67.0113 149.337 67.8668 149.337H68.3955V149.967H67.9985C67.5314 149.967 67.3276 150.241 67.3276 150.7V151.625H68.3955V152.183H67.3276Z" fill="#37738E"/>
<path id="Vector_26" d="M72.7752 156.09C72.4291 156.436 71.9515 156.659 71.3422 156.659C70.7329 156.659 70.2532 156.436 69.9093 156.09C69.3998 155.572 69.2979 154.869 69.2979 154.096C69.2979 153.324 69.3998 152.621 69.9093 152.103C70.2553 151.757 70.7329 151.534 71.3422 151.534C71.9515 151.534 72.4291 151.757 72.7752 152.103C73.2826 152.621 73.3866 153.324 73.3866 154.096C73.3866 154.869 73.2847 155.572 72.7752 156.09ZM72.2572 152.551C72.0237 152.317 71.6967 152.184 71.3422 152.184C70.9877 152.184 70.6714 152.315 70.4379 152.551C70.0727 152.916 70.0303 153.538 70.0303 154.096C70.0303 154.655 70.0706 155.277 70.4379 155.642C70.6714 155.875 70.9877 156.009 71.3422 156.009C71.6967 156.009 72.0237 155.877 72.2572 155.642C72.6245 155.275 72.6542 154.655 72.6542 154.096C72.6542 153.538 72.6245 152.916 72.2572 152.551Z" fill="#37738E"/>
<path id="Vector_27" d="M77.6919 152.551C77.418 152.277 77.2142 152.183 76.8279 152.183C76.0955 152.183 75.6284 152.763 75.6284 153.525V156.595H74.896V151.591H75.6284V152.203C75.9023 151.786 76.4521 151.532 77.0316 151.532C77.5093 151.532 77.8745 151.644 78.2311 151.999L77.6919 152.549V152.551Z" fill="#37738E"/>
<path id="Vector_28" d="M86.1495 155.926C85.7122 156.363 85.0711 156.597 84.3196 156.597H81.8379V149.356H84.3196C85.0711 149.356 85.7122 149.589 86.1495 150.027C86.9032 150.778 86.8607 151.888 86.8607 152.895C86.8607 153.901 86.901 155.173 86.1495 155.924M85.6103 150.574C85.2346 150.188 84.7463 150.046 84.1858 150.046H82.6085V155.903H84.1858C84.7463 155.903 85.2324 155.761 85.6103 155.374C86.1092 154.856 86.088 153.778 86.088 152.892C86.088 152.007 86.1092 151.092 85.6103 150.574Z" fill="#37738E"/>
<path id="Vector_29" d="M88.4463 149.347H89.27V150.171H88.4463V149.347ZM88.4866 151.595H89.219V156.599H88.4866V151.595Z" fill="#37738E"/>
<path id="Vector_30" d="M92.5735 156.659C91.7286 156.659 91.0684 156.465 90.5186 155.937L91.0068 155.449C91.4038 155.865 91.943 156.028 92.5629 156.028C93.3866 156.028 93.8961 155.733 93.8961 155.143C93.8961 154.706 93.6414 154.461 93.0618 154.41L92.2381 154.34C91.2616 154.258 90.7436 153.822 90.7436 152.999C90.7436 152.084 91.5163 151.534 92.5841 151.534C93.2953 151.534 93.9365 151.706 94.3844 152.073L93.9067 152.551C93.5501 152.277 93.0936 152.154 92.5735 152.154C91.8411 152.154 91.4548 152.47 91.4548 152.978C91.4548 153.404 91.6989 153.659 92.3294 153.71L93.1319 153.782C94.0065 153.863 94.6073 154.198 94.6073 155.134C94.6073 156.071 93.7836 156.661 92.5735 156.661" fill="#37738E"/>
<path id="Vector_31" d="M97.4943 156.597C96.6409 156.597 96.2121 155.998 96.2121 155.255V152.184H95.5815V151.623H96.2121V150.056H96.9445V151.623H98.0123V152.184H96.9445V155.234C96.9445 155.693 97.1589 155.967 97.6259 155.967H98.0123V156.597H97.4943Z" fill="#37738E"/>
<path id="Vector_32" d="M102.154 152.551C101.88 152.277 101.677 152.183 101.29 152.183C100.558 152.183 100.091 152.763 100.091 153.525V156.595H99.3584V151.591H100.091V152.203C100.365 151.786 100.914 151.532 101.494 151.532C101.972 151.532 102.337 151.644 102.693 151.999L102.154 152.549V152.551Z" fill="#37738E"/>
<path id="Vector_33" d="M103.749 149.347H104.572V150.171H103.749V149.347ZM103.789 151.595H104.521V156.599H103.789V151.595Z" fill="#37738E"/>
<path id="Vector_34" d="M109.61 156.221C109.346 156.484 108.898 156.659 108.389 156.659C107.839 156.659 107.383 156.525 106.975 155.998V156.597H106.243V149.356H106.975V152.173C107.381 151.655 107.839 151.532 108.389 151.532C108.896 151.532 109.344 151.704 109.61 151.969C110.119 152.479 110.221 153.313 110.221 154.094C110.221 154.875 110.119 155.712 109.61 156.219M108.236 152.181C107.149 152.181 106.975 153.118 106.975 154.094C106.975 155.071 107.147 156.007 108.236 156.007C109.325 156.007 109.486 155.071 109.486 154.094C109.486 153.118 109.323 152.181 108.236 152.181Z" fill="#37738E"/>
<path id="Vector_35" d="M114.902 156.597V156.039C114.545 156.446 114.049 156.659 113.488 156.659C112.928 156.659 112.501 156.495 112.197 156.189C111.841 155.843 111.688 155.366 111.688 154.786V151.593H112.42V154.676C112.42 155.561 112.89 156.009 113.641 156.009C114.393 156.009 114.891 155.55 114.891 154.676V151.593H115.624V156.597H114.902Z" fill="#37738E"/>
<path id="Vector_36" d="M118.825 156.597C117.972 156.597 117.543 155.998 117.543 155.255V152.184H116.913V151.623H117.543V150.056H118.276V151.623H119.343V152.184H118.276V155.234C118.276 155.693 118.49 155.967 118.957 155.967H119.343V156.597H118.825Z" fill="#37738E"/>
<path id="Vector_37" d="M123.844 156.09C123.498 156.436 123.02 156.659 122.411 156.659C121.802 156.659 121.322 156.436 120.978 156.09C120.469 155.572 120.367 154.869 120.367 154.096C120.367 153.324 120.469 152.621 120.978 152.103C121.324 151.757 121.802 151.534 122.411 151.534C123.02 151.534 123.498 151.757 123.844 152.103C124.351 152.621 124.455 153.324 124.455 154.096C124.455 154.869 124.354 155.572 123.844 156.09ZM123.326 152.551C123.093 152.317 122.766 152.184 122.411 152.184C122.057 152.184 121.74 152.315 121.507 152.551C121.142 152.916 121.099 153.538 121.099 154.096C121.099 154.655 121.139 155.277 121.507 155.642C121.74 155.875 122.057 156.009 122.411 156.009C122.766 156.009 123.093 155.877 123.326 155.642C123.693 155.275 123.723 154.655 123.723 154.096C123.723 153.538 123.693 152.916 123.326 152.551Z" fill="#37738E"/>
<path id="Vector_38" d="M128.759 152.551C128.485 152.277 128.281 152.183 127.895 152.183C127.162 152.183 126.695 152.763 126.695 153.525V156.595H125.963V151.591H126.695V152.203C126.969 151.786 127.519 151.532 128.099 151.532C128.576 151.532 128.943 151.644 129.298 151.999L128.759 152.549V152.551Z" fill="#37738E"/>
<path id="Vector_39" d="M131.966 156.659C131.121 156.659 130.461 156.465 129.911 155.937L130.399 155.449C130.796 155.865 131.336 156.028 131.956 156.028C132.779 156.028 133.289 155.733 133.289 155.143C133.289 154.706 133.034 154.461 132.454 154.41L131.631 154.34C130.654 154.258 130.136 153.822 130.136 152.999C130.136 152.084 130.909 151.534 131.977 151.534C132.688 151.534 133.329 151.706 133.777 152.073L133.299 152.551C132.943 152.277 132.486 152.154 131.966 152.154C131.234 152.154 130.847 152.47 130.847 152.978C130.847 153.404 131.091 153.659 131.722 153.71L132.524 153.782C133.399 153.863 134 154.198 134 155.134C134 156.071 133.176 156.661 131.966 156.661" fill="#37738E"/>
<path id="Vector_40" d="M1.12249 112.542C2.61915 114.039 5.04564 114.039 6.54229 112.542C8.03895 111.046 8.03895 108.619 6.54229 107.122C5.04564 105.626 2.61915 105.626 1.12249 107.122C-0.374164 108.619 -0.374164 111.046 1.12249 112.542Z" fill="#A1B41D"/>
<path id="Vector_41" d="M26.196 153.372H24.4573V156.586H23.6846V149.345H26.4613C27.7224 149.345 28.6076 150.107 28.6076 151.36C28.6076 152.417 27.9665 153.109 27.0324 153.302C27.0324 153.302 26.5654 153.372 26.1981 153.372H26.196ZM26.3892 150.037H24.4573V152.691H26.3892C27.232 152.691 27.8327 152.254 27.8327 151.368C27.8327 150.483 27.232 150.035 26.3892 150.035" fill="#37738E"/>
</g>
</g>
<defs>
<linearGradient id="paint0_linear_99_3919" x1="104.899" y1="-8.15342" x2="32.4135" y2="99.4822" gradientUnits="userSpaceOnUse">
<stop stop-color="#A1B41D"/>
<stop offset="0.11" stop-color="#A1B41D"/>
<stop offset="0.53" stop-color="#58C1E2"/>
<stop offset="0.68" stop-color="#479BB9"/>
<stop offset="0.91" stop-color="#2C5972"/>
<stop offset="1" stop-color="#2C5972"/>
</linearGradient>
</defs>
</svg>
