<svg xmlns="http://www.w3.org/2000/svg" width="40" height="40" viewBox="0 0 40 40" fill="none">
  <g clip-path="url(#clip0_340_172)">
    <path d="M21.6726 26.9999C21.5018 27.0004 21.3331 26.9675 21.1788 26.9034C21.0245 26.8394 20.8886 26.746 20.781 26.63L15.26 20.6305C15.0919 20.4516 15 20.2272 15 19.9956C15 19.764 15.0919 19.5396 15.26 19.3607L20.9753 13.3612C21.1694 13.157 21.4482 13.0286 21.7504 13.0042C22.0527 12.9799 22.3536 13.0615 22.5871 13.2312C22.8205 13.401 22.9673 13.6448 22.9952 13.9092C23.023 14.1736 22.9297 14.4369 22.7357 14.6411L17.6262 20.0006L22.5642 25.3601C22.704 25.5069 22.7928 25.6856 22.8201 25.8751C22.8474 26.0646 22.812 26.257 22.7182 26.4296C22.6244 26.6021 22.4761 26.7475 22.2908 26.8485C22.1055 26.9496 21.891 27.0022 21.6726 26.9999Z" fill="#000000"/>
  </g>
  <defs>
    <clipPath id="clip0_340_172">
      <rect width="40" height="40" fill="white"/>
    </clipPath>
  </defs>
</svg>