<svg xmlns="http://www.w3.org/2000/svg" width=" 0.83331rem" height="0.83331rem" viewBox="0 0 33 33" fill="none">
  <path d="M9.15663 3.6911L11.0523 3.11723C11.9152 2.85558 12.8434 2.91849 13.6636 3.29421C14.4838 3.66992 15.1398 4.33278 15.5094 5.15903L16.689 7.7965C17.0069 8.50701 17.0955 9.29971 16.9423 10.0634C16.7891 10.827 16.4018 11.5233 15.8349 12.0545L13.7736 13.9862C13.7481 14.0101 13.7272 14.0385 13.7119 14.0699C13.4961 14.513 13.8239 15.6963 14.8505 17.4844C16.0084 19.4998 16.9026 20.2963 17.3171 20.1735L20.0225 19.3414C20.7633 19.114 21.5565 19.1254 22.2906 19.3738C23.0248 19.6222 23.6632 20.0953 24.1164 20.7267L25.7928 23.06C26.3191 23.7927 26.5629 24.6924 26.4789 25.5921C26.3949 26.4918 25.9888 27.3302 25.336 27.9516L23.8937 29.3232C23.3922 29.8006 22.7831 30.1491 22.1186 30.3387C21.454 30.5284 20.7536 30.5537 20.0773 30.4124C16.061 29.5722 12.4626 26.3219 9.25142 20.7325C6.03906 15.1396 5.03756 10.3766 6.32798 6.4594C6.54399 5.8036 6.91389 5.20969 7.40643 4.72785C7.89897 4.24602 8.49853 3.89042 9.15663 3.6911ZM9.65225 5.33922C9.25737 5.45876 8.89692 5.67207 8.60135 5.96113C8.30579 6.2502 8.0838 6.60651 7.95414 6.99998C6.84187 10.3754 7.74288 14.6633 10.7348 19.8717C13.7245 25.0766 16.9654 28.0033 20.4256 28.7264C20.8316 28.8112 21.252 28.796 21.6509 28.6821C22.0498 28.5682 22.4154 28.3589 22.7164 28.0721L24.1575 26.7018C24.5091 26.3672 24.7279 25.9158 24.7733 25.4313C24.8187 24.9469 24.6875 24.4623 24.4042 24.0677L22.7278 21.7333C22.4838 21.3934 22.1401 21.1387 21.7449 21.0049C21.3496 20.8711 20.9227 20.8649 20.5238 20.9873L17.8116 21.8217C16.3111 22.2704 14.8996 21.0137 13.3671 18.3441C12.0687 16.0853 11.6187 14.4533 12.1737 13.3136C12.2811 13.0932 12.4272 12.8947 12.6054 12.7271L14.6666 10.7955C14.972 10.5095 15.1806 10.1345 15.2632 9.72321C15.3457 9.31193 15.298 8.885 15.1268 8.50235L13.9472 5.86603C13.7482 5.42101 13.3949 5.064 12.9531 4.86166C12.5114 4.65933 12.0115 4.62551 11.5468 4.76651L9.65111 5.34037L9.65225 5.33922Z" fill="#5CB5C1"/>
</svg>