<svg width="20" height="20" viewBox="0 0 20 20" fill="none" xmlns="http://www.w3.org/2000/svg">
<g id="search">
<path id="Shape" fill-rule="evenodd" clip-rule="evenodd" d="M8.33301 15.8333C4.19087 15.8333 0.833008 12.4754 0.833008 8.33325C0.833008 4.19112 4.19087 0.833252 8.33301 0.833252C12.4751 0.833252 15.833 4.19112 15.833 8.33325C15.828 12.4733 12.473 15.8282 8.33301 15.8333ZM8.33301 2.49992C5.11135 2.49992 2.49967 5.11159 2.49967 8.33325C2.49967 11.5549 5.11135 14.1666 8.33301 14.1666C11.5547 14.1666 14.1663 11.5549 14.1663 8.33325C14.1627 5.11311 11.5531 2.50359 8.33301 2.49992Z" fill="#2764A0"/>
<path id="Path" fill-rule="evenodd" clip-rule="evenodd" d="M5.83268 8.33317H4.16602C4.16877 6.03313 6.03264 4.16926 8.33268 4.1665V5.83317C6.95197 5.83317 5.83268 6.95246 5.83268 8.33317Z" fill="#2764A0"/>
<path id="Path_2" fill-rule="evenodd" clip-rule="evenodd" d="M18.9223 17.7442L15.3756 14.1975C15.0195 14.6253 14.6251 15.0197 14.1973 15.3758L17.7439 18.9225C18.0709 19.2383 18.5907 19.2338 18.9121 18.9124C19.2336 18.5909 19.2381 18.0712 18.9223 17.7442Z" fill="#2764A0"/>
</g>
</svg>
