<svg xmlns="http://www.w3.org/2000/svg" width="34" height="34" viewBox="0 0 34 34" fill="none">
  <path d="M10.1181 3.70294L12.0412 3.12077C12.9166 2.85533 13.8582 2.91915 14.6902 3.3003C15.5223 3.68146 16.1879 4.35391 16.5628 5.19212L17.7595 7.86775C18.082 8.58854 18.1718 9.39272 18.0164 10.1674C17.861 10.9421 17.4681 11.6485 16.8929 12.1874L14.8019 14.147C14.776 14.1712 14.7548 14.2 14.7393 14.232C14.5203 14.6814 14.8528 15.8818 15.8943 17.6959C17.069 19.7404 17.9761 20.5485 18.3967 20.4239L21.1411 19.5797C21.8927 19.3491 22.6973 19.3605 23.4421 19.6126C24.1869 19.8646 24.8346 20.3445 25.2943 20.9851L26.995 23.3522C27.5289 24.0954 27.7763 25.0082 27.691 25.9209C27.6058 26.8336 27.1938 27.6841 26.5316 28.3146L25.0684 29.7059C24.5596 30.1903 23.9418 30.5438 23.2676 30.7362C22.5934 30.9286 21.8829 30.9542 21.1967 30.8109C17.1223 29.9586 13.4719 26.6612 10.2142 20.9909C6.95539 15.3171 5.93939 10.4852 7.24849 6.5113C7.46763 5.84601 7.84288 5.2435 8.34255 4.7547C8.84221 4.26589 9.45045 3.90514 10.1181 3.70294ZM10.6209 5.37492C10.2203 5.49618 9.8546 5.71258 9.55476 6.00583C9.25492 6.29907 9.02972 6.66054 8.89819 7.0597C7.76981 10.484 8.68386 14.8339 11.7191 20.1177C14.752 25.3979 18.0399 28.3669 21.5501 29.1005C21.962 29.1866 22.3885 29.1711 22.7932 29.0556C23.1979 28.94 23.5687 28.7277 23.874 28.4368L25.336 27.0466C25.6927 26.7072 25.9147 26.2493 25.9608 25.7578C26.0068 25.2663 25.8737 24.7748 25.5863 24.3745L23.8856 22.0062C23.6381 21.6614 23.2894 21.403 22.8885 21.2673C22.4875 21.1315 22.0544 21.1253 21.6497 21.2494L18.8983 22.0959C17.376 22.5511 15.9441 21.2762 14.3894 18.5679C13.0722 16.2765 12.6158 14.6209 13.1788 13.4647C13.2877 13.2411 13.436 13.0397 13.6167 12.8697L15.7078 10.9101C16.0176 10.62 16.2293 10.2396 16.313 9.82234C16.3967 9.40511 16.3484 8.972 16.1747 8.58381L14.978 5.90934C14.7761 5.45789 14.4176 5.09571 13.9695 4.89044C13.5214 4.68518 13.0143 4.65087 12.5428 4.79391L10.6197 5.37608L10.6209 5.37492Z" fill="#38748F"/>
</svg>