<svg xmlns="http://www.w3.org/2000/svg" width="30" height="30" viewBox="0 0 30 30" fill="none">
  <path d="M15 0.375C12.1075 0.375 9.27986 1.23274 6.87479 2.83976C4.46972 4.44677 2.5952 6.73089 1.48827 9.40325C0.381337 12.0756 0.091713 15.0162 0.656022 17.8532C1.22033 20.6902 2.61323 23.2961 4.65857 25.3414C6.70391 27.3868 9.30984 28.7797 12.1468 29.344C14.9838 29.9083 17.9244 29.6187 20.5968 28.5117C23.2691 27.4048 25.5532 25.5303 27.1602 23.1252C28.7673 20.7201 29.625 17.8926 29.625 15C29.6209 11.1225 28.0788 7.40492 25.3369 4.66309C22.5951 1.92125 18.8775 0.379095 15 0.375ZM15 27.375C12.5525 27.375 10.1599 26.6492 8.12482 25.2894C6.08977 23.9297 4.50363 21.9969 3.567 19.7357C2.63036 17.4745 2.3853 14.9863 2.86279 12.5858C3.34028 10.1852 4.51889 7.98023 6.24956 6.24955C7.98024 4.51888 10.1852 3.34027 12.5858 2.86278C14.9863 2.38529 17.4745 2.63036 19.7357 3.56699C21.997 4.50363 23.9297 6.08976 25.2894 8.12482C26.6492 10.1599 27.375 12.5525 27.375 15C27.3713 18.2809 26.0663 21.4264 23.7463 23.7463C21.4264 26.0663 18.2809 27.3713 15 27.375ZM24 15C24 15.2984 23.8815 15.5845 23.6705 15.7955C23.4595 16.0065 23.1734 16.125 22.875 16.125H15C14.7016 16.125 14.4155 16.0065 14.2045 15.7955C13.9935 15.5845 13.875 15.2984 13.875 15V7.125C13.875 6.82663 13.9935 6.54048 14.2045 6.3295C14.4155 6.11853 14.7016 6 15 6C15.2984 6 15.5845 6.11853 15.7955 6.3295C16.0065 6.54048 16.125 6.82663 16.125 7.125V13.875H22.875C23.1734 13.875 23.4595 13.9935 23.6705 14.2045C23.8815 14.4155 24 14.7016 24 15Z" fill="#20899C"/>
</svg>