<svg width="34" height="33" viewBox="0 0 34 33" fill="none" xmlns="http://www.w3.org/2000/svg">
<path d="M13.1484 8.27026C13.1484 7.19054 13.5752 6.15505 14.3348 5.39157C15.0945 4.6281 16.1248 4.19918 17.1991 4.19918C18.2734 4.19918 19.3037 4.6281 20.0634 5.39157C20.823 6.15505 21.2498 7.19054 21.2498 8.27026C21.2498 9.34998 20.823 10.3855 20.0634 11.149C19.3037 11.9124 18.2734 12.3413 17.1991 12.3413C16.1248 12.3413 15.0945 11.9124 14.3348 11.149C13.5752 10.3855 13.1484 9.34998 13.1484 8.27026ZM17.1991 6.23676C16.9334 6.23676 16.6703 6.28936 16.4248 6.39155C16.1793 6.49374 15.9563 6.64353 15.7684 6.83236C15.5805 7.02119 15.4315 7.24536 15.3298 7.49207C15.2281 7.73879 15.1758 8.00322 15.1758 8.27026C15.1758 8.53731 15.2281 8.80173 15.3298 9.04845C15.4315 9.29517 15.5805 9.51934 15.7684 9.70817C15.9563 9.89699 16.1793 10.0468 16.4248 10.149C16.6703 10.2512 16.9334 10.3038 17.1991 10.3038C17.7357 10.3038 18.2504 10.0895 18.6298 9.70817C19.0092 9.32681 19.2224 8.80958 19.2224 8.27026C19.2224 7.73094 19.0092 7.21371 18.6298 6.83236C18.2504 6.451 17.7357 6.23676 17.1991 6.23676ZM23.2812 9.28905C23.2812 8.88768 23.3598 8.49025 23.5127 8.11943C23.6655 7.74861 23.8895 7.41168 24.1719 7.12787C24.4543 6.84406 24.7895 6.61893 25.1585 6.46534C25.5274 6.31174 25.9229 6.23268 26.3222 6.23268C26.7216 6.23268 27.117 6.31174 27.486 6.46534C27.8549 6.61893 28.1902 6.84406 28.4726 7.12787C28.755 7.41168 28.979 7.74861 29.1318 8.11943C29.2846 8.49025 29.3633 8.88768 29.3633 9.28905C29.3633 10.0997 29.0429 10.877 28.4726 11.4502C27.9023 12.0234 27.1288 12.3454 26.3222 12.3454C25.5157 12.3454 24.7422 12.0234 24.1719 11.4502C23.6016 10.877 23.2812 10.0997 23.2812 9.28905ZM26.3222 8.27026C26.0534 8.27026 25.7956 8.3776 25.6055 8.56866C25.4153 8.75972 25.3086 9.01885 25.3086 9.28905C25.3086 9.55925 25.4153 9.81838 25.6055 10.0094C25.7956 10.2005 26.0534 10.3078 26.3222 10.3078C26.5911 10.3078 26.8489 10.2005 27.039 10.0094C27.2291 9.81838 27.3359 9.55925 27.3359 9.28905C27.3359 9.01885 27.2291 8.75972 27.039 8.56866C26.8489 8.3776 26.5911 8.27026 26.3222 8.27026ZM8.07597 6.23268C7.26944 6.23268 6.49594 6.55469 5.92563 7.12787C5.35533 7.70105 5.03493 8.47845 5.03493 9.28905C5.03493 10.0997 5.35533 10.877 5.92563 11.4502C6.49594 12.0234 7.26944 12.3454 8.07597 12.3454C8.88251 12.3454 9.65601 12.0234 10.2263 11.4502C10.7966 10.877 11.117 10.0997 11.117 9.28905C11.117 8.47845 10.7966 7.70105 10.2263 7.12787C9.65601 6.55469 8.88251 6.23268 8.07597 6.23268ZM7.06229 9.28905C7.06229 9.01885 7.16909 8.75972 7.35919 8.56866C7.5493 8.3776 7.80713 8.27026 8.07597 8.27026C8.34482 8.27026 8.60265 8.3776 8.79275 8.56866C8.98286 8.75972 9.08966 9.01885 9.08966 9.28905C9.08966 9.55925 8.98286 9.81838 8.79275 10.0094C8.60265 10.2005 8.34482 10.3078 8.07597 10.3078C7.80713 10.3078 7.5493 10.2005 7.35919 10.0094C7.16909 9.81838 7.06229 9.55925 7.06229 9.28905ZM9.63299 14.383C9.27618 15.0021 9.08873 15.7051 9.08966 16.4206H5.03493V21.5145C5.03477 22.0213 5.16001 22.5203 5.39938 22.9663C5.63876 23.4124 5.98475 23.7917 6.40621 24.0699C6.82768 24.3482 7.31138 24.5168 7.81379 24.5605C8.31619 24.6042 8.82152 24.5216 9.28428 24.3203C9.43431 24.9947 9.66948 25.6386 9.97358 26.2397C9.20413 26.5519 8.37016 26.6695 7.54492 26.5821C6.71968 26.4947 5.92841 26.2051 5.24059 25.7385C4.55278 25.2719 3.98946 24.6428 3.60011 23.9063C3.21076 23.1698 3.00729 22.3485 3.00757 21.5145V16.4206C3.00757 15.8802 3.22117 15.3619 3.60137 14.9798C3.98157 14.5977 4.49724 14.383 5.03493 14.383H9.63299ZM24.4246 26.2397C25.1941 26.5519 26.028 26.6695 26.8533 26.5821C27.6785 26.4947 28.4698 26.2051 29.1576 25.7385C29.8454 25.2719 30.4087 24.6428 30.7981 23.9063C31.1874 23.1698 31.3909 22.3485 31.3906 21.5145V16.4206C31.3906 15.8802 31.177 15.3619 30.7968 14.9798C30.4166 14.5977 29.901 14.383 29.3633 14.383H24.7652C25.1099 14.982 25.3086 15.6769 25.3086 16.4206H29.3633V21.5145C29.3634 22.0213 29.2382 22.5203 28.9988 22.9663C28.7594 23.4124 28.4135 23.7917 27.992 24.0699C27.5705 24.3482 27.0868 24.5168 26.5844 24.5605C26.082 24.6042 25.5767 24.5216 25.1139 24.3203C24.9619 24.9947 24.7287 25.6386 24.4246 26.2397ZM13.1444 14.381C12.6067 14.381 12.091 14.5956 11.7108 14.9778C11.3306 15.3599 11.117 15.8781 11.117 16.4185V22.5333C11.117 24.1545 11.7578 25.7093 12.8984 26.8557C14.039 28.002 15.586 28.646 17.1991 28.646C18.8122 28.646 20.3592 28.002 21.4998 26.8557C22.6404 25.7093 23.2812 24.1545 23.2812 22.5333V16.4206C23.2812 15.8802 23.0676 15.3619 22.6874 14.9798C22.3072 14.5977 21.7915 14.383 21.2538 14.383H13.1444V14.381ZM13.1444 16.4185H21.2538V22.5333C21.2538 23.6141 20.8266 24.6506 20.0662 25.4149C19.3058 26.1791 18.2745 26.6085 17.1991 26.6085C16.1237 26.6085 15.0924 26.1791 14.332 25.4149C13.5716 24.6506 13.1444 23.6141 13.1444 22.5333V16.4206V16.4185Z" fill="#20899C"/>
</svg>
