<!-- <svg xmlns="http://www.w3.org/2000/svg" width="24" height="24" viewBox="0 0 24 24" fill="none">
  <path d="M2.5 2.75C2.5 2.55109 2.42098 2.36032 2.28033 2.21967C2.13968 2.07902 1.94891 2 1.75 2C1.55109 2 1.36032 2.07902 1.21967 2.21967C1.07902 2.36032 1 2.55109 1 2.75V21.25C1 21.664 1.336 22 1.75 22H20C20.1989 22 20.3897 21.921 20.5303 21.7803C20.671 21.6397 20.75 21.4489 20.75 21.25C20.75 21.0511 20.671 20.8603 20.5303 20.7197C20.3897 20.579 20.1989 20.5 20 20.5H2.5V2.75Z" fill="#13C999"/>
  <path d="M22.2802 7.78009C22.4126 7.63792 22.4848 7.44987 22.4813 7.25557C22.4779 7.06127 22.3992 6.87588 22.2618 6.73847C22.1244 6.60106 21.939 6.52234 21.7447 6.51892C21.5504 6.51549 21.3623 6.58761 21.2202 6.72009L15.5002 12.4401L11.7802 8.72009C11.6395 8.57964 11.4489 8.50075 11.2502 8.50075C11.0514 8.50075 10.8608 8.57964 10.7202 8.72009L4.72015 14.7201C4.64647 14.7888 4.58736 14.8716 4.54637 14.9636C4.50538 15.0556 4.48334 15.1549 4.48156 15.2556C4.47979 15.3563 4.49831 15.4563 4.53603 15.5497C4.57375 15.6431 4.6299 15.7279 4.70112 15.7991C4.77233 15.8703 4.85717 15.9265 4.95056 15.9642C5.04394 16.0019 5.14397 16.0205 5.24468 16.0187C5.34538 16.0169 5.44469 15.9949 5.53669 15.9539C5.62869 15.9129 5.71149 15.8538 5.78015 15.7801L11.2502 10.3101L14.9702 14.0301C15.1108 14.1705 15.3014 14.2494 15.5002 14.2494C15.6989 14.2494 15.8895 14.1705 16.0302 14.0301L22.2802 7.78009Z" fill="#13C999"/>
</svg> -->
<svg width="24" height="24" viewBox="0 0 24 24" fill="none" xmlns="http://www.w3.org/2000/svg">
<path d="M12 3.42857C9.16118 3.42857 6.85718 5.73257 6.85718 8.57143C6.85718 8.79876 6.94748 9.01678 7.10823 9.17752C7.26897 9.33827 7.48699 9.42857 7.71432 9.42857C7.94165 9.42857 8.15967 9.33827 8.32041 9.17752C8.48116 9.01678 8.57146 8.79876 8.57146 8.57143C8.57146 6.67886 10.1075 5.14286 12 5.14286C13.8926 5.14286 15.4286 6.67886 15.4286 8.57143C15.4286 9.48257 15.2057 10.0646 14.904 10.5146C14.5955 10.9749 14.1883 11.3314 13.668 11.7857L13.5789 11.8637C13.0415 12.3343 12.4097 12.9009 11.9315 13.71C11.4429 14.5371 11.1429 15.5614 11.1429 16.9286V17.1429C11.1429 17.3702 11.2332 17.5882 11.3939 17.749C11.5547 17.9097 11.7727 18 12 18C12.2274 18 12.4454 17.9097 12.6061 17.749C12.7669 17.5882 12.8572 17.3702 12.8572 17.1429V16.9286C12.8572 15.8314 13.0929 15.1149 13.4075 14.5826C13.7332 14.0323 14.1729 13.6217 14.7077 13.1537L14.8303 13.0466C15.3155 12.6249 15.888 12.126 16.3277 11.4694C16.8292 10.7211 17.1429 9.80314 17.1429 8.57143C17.1429 5.73257 14.8389 3.42857 12 3.42857ZM12 21.6429C12.2842 21.6429 12.5567 21.53 12.7576 21.329C12.9586 21.1281 13.0715 20.8556 13.0715 20.5714C13.0715 20.2873 12.9586 20.0147 12.7576 19.8138C12.5567 19.6129 12.2842 19.5 12 19.5C11.7159 19.5 11.4434 19.6129 11.2424 19.8138C11.0415 20.0147 10.9286 20.2873 10.9286 20.5714C10.9286 20.8556 11.0415 21.1281 11.2424 21.329C11.4434 21.53 11.7159 21.6429 12 21.6429Z" fill="#20899C"/>
</svg>
