<svg xmlns="http://www.w3.org/2000/svg" width="101" height="233" viewBox="0 0 101 233" fill="none">
<path d="M-267.968 170.541C-268.874 204.334 -250.675 251.123 -213.212 242.675C-184.895 236.29 -210.661 204.154 -175.84 185.981C-141.019 167.807 -95.5901 173.269 -73.8614 203.192C-57.8608 225.226 -86.2195 246.254 -73.8614 270.01C-45.4556 324.615 95.4445 312.594 100.834 252.799C104.407 213.164 49.2306 207.401 32.1728 170.541C11.4472 125.757 53.936 85.6182 20.2946 47.2812C-5.14661 18.2889 -34.2008 -8.84112 -73.8614 2.73538C-125.369 17.77 -24.6103 104.234 -73.8614 124.224C-96.7427 133.511 -113.512 127.469 -138.467 124.224C-168.972 120.257 -183.289 95.4283 -213.212 101.951C-249.481 109.857 -267.092 137.893 -267.968 170.541Z" fill="url(#paint0_linear_99_3734)" fill-opacity="0.6"/>
<defs>
<linearGradient id="paint0_linear_99_3734" x1="-268" y1="0" x2="31.5491" y2="362.405" gradientUnits="userSpaceOnUse">
<stop stop-color="#A3B441"/>
<stop offset="1" stop-color="#2583C9"/>
</linearGradient>
</defs>
</svg>