<svg xmlns="http://www.w3.org/2000/svg" width="58" height="88" viewBox="0 0 58 88" fill="none">
  <path d="M2.99077 14.6626H-9.83904C-10.3251 14.6626 -10.7913 14.8557 -11.1351 15.1994C-11.4788 15.5431 -11.6719 16.0093 -11.6719 16.4954V78.8117C-11.6719 79.2978 -11.4788 79.764 -11.1351 80.1077C-10.7913 80.4514 -10.3251 80.6445 -9.83904 80.6445H41.4802C41.9663 80.6445 42.4325 80.4514 42.7762 80.1077C43.12 79.764 43.3131 79.2978 43.3131 78.8117V16.4954C43.3131 16.0093 43.12 15.5431 42.7762 15.1994C42.4325 14.8557 41.9663 14.6626 41.4802 14.6626H28.6504" stroke="#D3E3EC" stroke-width="7.33132"/>
  <path d="M2.99072 23.8268V14.6627H10.2304C10.2547 14.6627 10.278 14.653 10.2952 14.6358C10.3124 14.6187 10.322 14.5954 10.322 14.571V10.997C10.322 10.275 10.4643 9.55995 10.7406 8.89285C11.0169 8.22574 11.4219 7.61959 11.9325 7.10901C12.4431 6.59842 13.0492 6.19341 13.7164 5.91708C14.3835 5.64076 15.0985 5.49854 15.8205 5.49854C16.5426 5.49854 17.2576 5.64076 17.9247 5.91708C18.5918 6.19341 19.198 6.59842 19.7086 7.10901C20.2191 7.61959 20.6242 8.22574 20.9005 8.89285C21.1768 9.55995 21.319 10.275 21.319 10.997V14.571C21.319 14.6224 21.3594 14.6627 21.4107 14.6627H28.6504V23.8268C28.6504 24.3129 28.4573 24.7791 28.1135 25.1229C27.7698 25.4666 27.3036 25.6597 26.8175 25.6597H4.82355C4.33746 25.6597 3.87127 25.4666 3.52755 25.1229C3.18382 24.7791 2.99072 24.3129 2.99072 23.8268Z" stroke="#D3E3EC" stroke-width="7.33132"/>
</svg>