<svg xmlns="http://www.w3.org/2000/svg" width="52" height="103" viewBox="0 0 52 103" fill="none">
  <path d="M81.2324 42.9166V60.0833M58.9329 81.5416L66.3661 77.2499L73.7992 72.9583M44.0666 81.5416L36.6313 77.2499L29.1981 72.9583M21.7671 42.9166V60.0833M29.1981 30.0416L36.6334 25.7499L44.0666 21.4583M58.9329 21.4583L66.3661 25.7499L73.7992 30.0416" stroke="#D3E3EC" stroke-width="8.58333" stroke-linecap="round" stroke-linejoin="round"/>
  <path d="M51.5 94.4166C53.7764 94.4166 55.9596 93.5123 57.5693 91.9026C59.179 90.2929 60.0833 88.1097 60.0833 85.8333C60.0833 83.5568 59.179 81.3736 57.5693 79.7639C55.9596 78.1542 53.7764 77.2499 51.5 77.2499C49.2236 77.2499 47.0404 78.1542 45.4307 79.7639C43.821 81.3736 42.9167 83.5568 42.9167 85.8333C42.9167 88.1097 43.821 90.2929 45.4307 91.9026C47.0404 93.5123 49.2236 94.4166 51.5 94.4166ZM51.5 25.7499C53.7764 25.7499 55.9596 24.8456 57.5693 23.2359C59.179 21.6262 60.0833 19.443 60.0833 17.1666C60.0833 14.8901 59.179 12.7069 57.5693 11.0973C55.9596 9.48756 53.7764 8.58325 51.5 8.58325C49.2236 8.58325 47.0404 9.48756 45.4307 11.0973C43.821 12.7069 42.9167 14.8901 42.9167 17.1666C42.9167 19.443 43.821 21.6262 45.4307 23.2359C47.0404 24.8456 49.2236 25.7499 51.5 25.7499ZM51.5 60.0833C53.7764 60.0833 55.9596 59.1789 57.5693 57.5693C59.179 55.9596 60.0833 53.7764 60.0833 51.4999C60.0833 49.2235 59.179 47.0403 57.5693 45.4306C55.9596 43.8209 53.7764 42.9166 51.5 42.9166C49.2236 42.9166 47.0404 43.8209 45.4307 45.4306C43.821 47.0403 42.9167 49.2235 42.9167 51.4999C42.9167 53.7764 43.821 55.9596 45.4307 57.5693C47.0404 59.1789 49.2236 60.0833 51.5 60.0833ZM81.5417 42.9166C83.8181 42.9166 86.0013 42.0123 87.611 40.4026C89.2207 38.7929 90.125 36.6097 90.125 34.3333C90.125 32.0568 89.2207 29.8736 87.611 28.2639C86.0013 26.6542 83.8181 25.7499 81.5417 25.7499C79.2652 25.7499 77.082 26.6542 75.4723 28.2639C73.8626 29.8736 72.9583 32.0568 72.9583 34.3333C72.9583 36.6097 73.8626 38.7929 75.4723 40.4026C77.082 42.0123 79.2652 42.9166 81.5417 42.9166ZM81.5417 77.2499C83.8181 77.2499 86.0013 76.3456 87.611 74.7359C89.2207 73.1262 90.125 70.943 90.125 68.6666C90.125 66.3901 89.2207 64.2069 87.611 62.5973C86.0013 60.9876 83.8181 60.0833 81.5417 60.0833C79.2652 60.0833 77.082 60.9876 75.4723 62.5973C73.8626 64.2069 72.9583 66.3901 72.9583 68.6666C72.9583 70.943 73.8626 73.1262 75.4723 74.7359C77.082 76.3456 79.2652 77.2499 81.5417 77.2499ZM21.4583 42.9166C23.7348 42.9166 25.918 42.0123 27.5277 40.4026C29.1374 38.7929 30.0417 36.6097 30.0417 34.3333C30.0417 32.0568 29.1374 29.8736 27.5277 28.2639C25.918 26.6542 23.7348 25.7499 21.4583 25.7499C19.1819 25.7499 16.9987 26.6542 15.389 28.2639C13.7793 29.8736 12.875 32.0568 12.875 34.3333C12.875 36.6097 13.7793 38.7929 15.389 40.4026C16.9987 42.0123 19.1819 42.9166 21.4583 42.9166ZM21.4583 77.2499C23.7348 77.2499 25.918 76.3456 27.5277 74.7359C29.1374 73.1262 30.0417 70.943 30.0417 68.6666C30.0417 66.3901 29.1374 64.2069 27.5277 62.5973C25.918 60.9876 23.7348 60.0833 21.4583 60.0833C19.1819 60.0833 16.9987 60.9876 15.389 62.5973C13.7793 64.2069 12.875 66.3901 12.875 68.6666C12.875 70.943 13.7793 73.1262 15.389 74.7359C16.9987 76.3456 19.1819 77.2499 21.4583 77.2499Z" stroke="#D3E3EC" stroke-width="8.58333" stroke-linecap="round" stroke-linejoin="round"/>
</svg>