<svg width="25" height="24" viewBox="0 0 25 24" fill="none" xmlns="http://www.w3.org/2000/svg">
<g id="profile">
<g id="Group">
<path id="Vector" d="M11.7773 11.4482C14.2483 11.4482 16.2514 9.44505 16.2514 6.97408C16.2514 4.50311 14.2483 2.5 11.7773 2.5C9.30634 2.5 7.30322 4.50311 7.30322 6.97408C7.30322 9.44505 9.30634 11.4482 11.7773 11.4482Z" fill="#9A9A9A"/>
<path id="Vector_2" fill-rule="evenodd" clip-rule="evenodd" d="M4.68019 17.6708C4.679 17.3563 4.74935 17.0456 4.88591 16.7623C5.31447 15.9052 6.52299 15.4509 7.52581 15.2452C8.24904 15.0909 8.98226 14.9878 9.72001 14.9367C11.0859 14.8167 12.4597 14.8167 13.8256 14.9367C14.5632 14.9884 15.2964 15.0915 16.0198 15.2452C17.0226 15.4509 18.2311 15.8623 18.6597 16.7623C18.9343 17.3399 18.9343 18.0104 18.6597 18.588C18.2311 19.4879 17.0226 19.8993 16.0198 20.0965C15.2974 20.2572 14.5639 20.3632 13.8256 20.4136C12.7138 20.5078 11.5969 20.525 10.4828 20.465C10.2257 20.465 9.97714 20.465 9.72001 20.4136C8.98444 20.3638 8.25376 20.2578 7.53438 20.0965C6.52299 19.8993 5.32304 19.4879 4.88591 18.588C4.75004 18.3013 4.67977 17.988 4.68019 17.6708Z" fill="#9A9A9A"/>
</g>
</g>
</svg>
