<svg width="16" height="18" viewBox="0 0 16 18" fill="none" xmlns="http://www.w3.org/2000/svg">
<path id="Vector" d="M12.9002 6.125V4.375C12.9002 1.925 10.7442 0 8.00016 0C5.25616 0 3.10016 1.925 3.10016 4.375V6.125C1.43416 6.125 0.160156 7.2625 0.160156 8.75V14.875C0.160156 16.3625 1.43416 17.5 3.10016 17.5H12.9002C14.5662 17.5 15.8402 16.3625 15.8402 14.875V8.75C15.8402 7.2625 14.5662 6.125 12.9002 6.125ZM5.06016 4.375C5.06016 2.8875 6.33416 1.75 8.00016 1.75C9.66616 1.75 10.9402 2.8875 10.9402 4.375V6.125H5.06016V4.375ZM8.98016 13.125C8.98016 13.65 8.58816 14 8.00016 14C7.41216 14 7.02016 13.65 7.02016 13.125V10.5C7.02016 9.975 7.41216 9.625 8.00016 9.625C8.58816 9.625 8.98016 9.975 8.98016 10.5V13.125Z" fill="#9A9A9A"/>
</svg>
