<svg xmlns="http://www.w3.org/2000/svg" xmlns:xlink="http://www.w3.org/1999/xlink" version="1.1" width="20" height="20" viewBox="0 0 256 256" xml:space="preserve">

<defs>
</defs>
<g style="stroke: none; stroke-width: 0; stroke-dasharray: none; stroke-linecap: butt; stroke-linejoin: miter; stroke-miterlimit: 10; fill: none; fill-rule: nonzero; opacity: 1;" transform="translate(1.4065934065934016 1.4065934065934016) scale(2.81 2.81)" >
	<path d="M 7.161 90 c -1.792 0 -3.583 -0.684 -4.95 -2.05 c -2.734 -2.734 -2.734 -7.166 0 -9.9 L 35.262 45 L 2.211 11.95 c -2.734 -2.733 -2.734 -7.166 0 -9.899 c 2.733 -2.733 7.166 -2.733 9.899 0 l 38 38 c 2.733 2.733 2.733 7.166 0 9.9 l -38 38 C 10.744 89.316 8.953 90 7.161 90 z" style="stroke: none; stroke-width: 1; stroke-dasharray: none; stroke-linecap: butt; stroke-linejoin: miter; stroke-miterlimit: 10; fill: rgb(92,181,193); fill-rule: nonzero; opacity: 1;" transform=" matrix(1 0 0 1 0 0) " stroke-linecap="round" />
	<path d="M 44.839 90 c -1.792 0 -3.583 -0.684 -4.95 -2.05 c -2.734 -2.734 -2.734 -7.166 0 -9.9 L 72.939 45 l -33.05 -33.05 c -2.734 -2.733 -2.734 -7.166 0 -9.899 c 2.733 -2.732 7.166 -2.733 9.9 0 l 38 38 c 2.733 2.733 2.733 7.166 0 9.9 l -38 38 C 48.422 89.316 46.63 90 44.839 90 z" style="stroke: none; stroke-width: 1; stroke-dasharray: none; stroke-linecap: butt; stroke-linejoin: miter; stroke-miterlimit: 10; fill: rgb(92,181,193); fill-rule: nonzero; opacity: 1;" transform=" matrix(1 0 0 1 0 0) " stroke-linecap="round" />
</g>
</svg>