<svg xmlns="http://www.w3.org/2000/svg" width="33" height="33" viewBox="0 0 33 33" fill="none">
  <path d="M22.9716 19.4014C23.325 19.4014 23.6639 19.2603 23.9137 19.0092C24.1636 18.7581 24.3039 18.4175 24.3039 18.0624C24.3039 17.7073 24.1636 17.3667 23.9137 17.1156C23.6639 16.8645 23.325 16.7234 22.9716 16.7234C22.6183 16.7234 22.2794 16.8645 22.0296 17.1156C21.7797 17.3667 21.6394 17.7073 21.6394 18.0624C21.6394 18.4175 21.7797 18.7581 22.0296 19.0092C22.2794 19.2603 22.6183 19.4014 22.9716 19.4014ZM22.9716 24.7574C23.325 24.7574 23.6639 24.6164 23.9137 24.3653C24.1636 24.1141 24.3039 23.7736 24.3039 23.4184C24.3039 23.0633 24.1636 22.7227 23.9137 22.4716C23.6639 22.2205 23.325 22.0794 22.9716 22.0794C22.6183 22.0794 22.2794 22.2205 22.0296 22.4716C21.7797 22.7227 21.6394 23.0633 21.6394 23.4184C21.6394 23.7736 21.7797 24.1141 22.0296 24.3653C22.2794 24.6164 22.6183 24.7574 22.9716 24.7574ZM17.6425 18.0624C17.6425 18.4175 17.5021 18.7581 17.2522 19.0092C17.0024 19.2603 16.6635 19.4014 16.3102 19.4014C15.9568 19.4014 15.618 19.2603 15.3681 19.0092C15.1182 18.7581 14.9779 18.4175 14.9779 18.0624C14.9779 17.7073 15.1182 17.3667 15.3681 17.1156C15.618 16.8645 15.9568 16.7234 16.3102 16.7234C16.6635 16.7234 17.0024 16.8645 17.2522 17.1156C17.5021 17.3667 17.6425 17.7073 17.6425 18.0624ZM17.6425 23.4184C17.6425 23.7736 17.5021 24.1141 17.2522 24.3653C17.0024 24.6164 16.6635 24.7574 16.3102 24.7574C15.9568 24.7574 15.618 24.6164 15.3681 24.3653C15.1182 24.1141 14.9779 23.7736 14.9779 23.4184C14.9779 23.0633 15.1182 22.7227 15.3681 22.4716C15.618 22.2205 15.9568 22.0794 16.3102 22.0794C16.6635 22.0794 17.0024 22.2205 17.2522 22.4716C17.5021 22.7227 17.6425 23.0633 17.6425 23.4184ZM9.6487 19.4014C10.002 19.4014 10.3409 19.2603 10.5908 19.0092C10.8406 18.7581 10.981 18.4175 10.981 18.0624C10.981 17.7073 10.8406 17.3667 10.5908 17.1156C10.3409 16.8645 10.002 16.7234 9.6487 16.7234C9.29535 16.7234 8.95648 16.8645 8.70663 17.1156C8.45677 17.3667 8.31641 17.7073 8.31641 18.0624C8.31641 18.4175 8.45677 18.7581 8.70663 19.0092C8.95648 19.2603 9.29535 19.4014 9.6487 19.4014ZM9.6487 24.7574C10.002 24.7574 10.3409 24.6164 10.5908 24.3653C10.8406 24.1141 10.981 23.7736 10.981 23.4184C10.981 23.0633 10.8406 22.7227 10.5908 22.4716C10.3409 22.2205 10.002 22.0794 9.6487 22.0794C9.29535 22.0794 8.95648 22.2205 8.70663 22.4716C8.45677 22.7227 8.31641 23.0633 8.31641 23.4184C8.31641 23.7736 8.45677 24.1141 8.70663 24.3653C8.95648 24.6164 9.29535 24.7574 9.6487 24.7574Z" fill="#F8F8F8"/>
  <path fill-rule="evenodd" clip-rule="evenodd" d="M9.64898 2.99854C9.91399 2.99854 10.1681 3.10434 10.3555 3.29268C10.5429 3.48101 10.6482 3.73645 10.6482 4.00279V5.02446C11.5302 5.00705 12.5014 5.00705 13.5699 5.00705H19.0497C20.1195 5.00705 21.0907 5.00705 21.9727 5.02446V4.00279C21.9727 3.73645 22.078 3.48101 22.2654 3.29268C22.4528 3.10434 22.7069 2.99854 22.9719 2.99854C23.2369 2.99854 23.4911 3.10434 23.6785 3.29268C23.8659 3.48101 23.9711 3.73645 23.9711 4.00279V5.11015C24.3175 5.13693 24.6453 5.17041 24.9557 5.21192C26.5172 5.42348 27.7815 5.86803 28.7794 6.86961C29.776 7.87253 30.2183 9.14325 30.4288 10.7126C30.6326 12.239 30.6326 14.1873 30.6326 16.6484V19.4764C30.6326 21.9375 30.6326 23.8871 30.4288 25.4122C30.2183 26.9815 29.776 28.2522 28.7794 29.2552C27.7815 30.2567 26.5172 30.7013 24.9557 30.9128C23.4369 31.1177 21.4984 31.1177 19.0497 31.1177H13.5713C11.1225 31.1177 9.18267 31.1177 7.66519 30.9128C6.10374 30.7013 4.83939 30.2567 3.8415 29.2552C2.84495 28.2522 2.40262 26.9815 2.19212 25.4122C1.98828 23.8857 1.98828 21.9375 1.98828 19.4764V16.6484C1.98828 14.1873 1.98828 12.2377 2.19212 10.7126C2.40262 9.14325 2.84495 7.87253 3.8415 6.86961C4.83939 5.86803 6.10374 5.42348 7.66519 5.21192C7.97562 5.17041 8.30469 5.13693 8.64976 5.11015V4.00279C8.64976 3.73645 8.75503 3.48101 8.94242 3.29268C9.12981 3.10434 9.38397 2.99854 9.64898 2.99854ZM7.93032 7.20302C6.59136 7.38379 5.81863 7.7239 5.25507 8.2903C4.69151 8.8567 4.3531 9.63332 4.17325 10.9804C4.1426 11.208 4.11729 11.449 4.09597 11.7021H28.5249C28.5036 11.4477 28.4783 11.208 28.4477 10.979C28.2678 9.63332 27.9294 8.8567 27.3658 8.2903C26.8023 7.7239 26.0295 7.38379 24.6893 7.20302C23.321 7.01824 21.5157 7.01556 18.975 7.01556H13.6459C11.1052 7.01556 9.30125 7.01824 7.93032 7.20302ZM3.98672 16.7234C3.98672 15.5799 3.98672 14.585 4.00404 13.7106H28.6169C28.6342 14.585 28.6342 15.5799 28.6342 16.7234V19.4014C28.6342 21.9549 28.6315 23.7692 28.4477 25.1457C28.2678 26.4914 27.9294 27.2681 27.3658 27.8345C26.8023 28.4009 26.0295 28.741 24.6893 28.9217C23.321 29.1065 21.5157 29.1092 18.975 29.1092H13.6459C11.1052 29.1092 9.30125 29.1065 7.93032 28.9217C6.59136 28.741 5.81863 28.4009 5.25507 27.8345C4.69151 27.2681 4.3531 26.4914 4.17325 25.1444C3.98939 23.7692 3.98672 21.9549 3.98672 19.4014V16.7234Z" fill="#F8F8F8"/>
</svg>