<svg xmlns="http://www.w3.org/2000/svg" width="97" height="97" viewBox="0 0 97 97" fill="none">
  <path d="M89.4219 21.2188C85.2357 21.2188 81.8438 24.6122 81.8438 28.7969C81.8438 29.6562 82.0181 30.4671 82.2803 31.237L63.8078 47.1435C62.512 46.1114 60.8948 45.4688 59.1094 45.4688C57.0497 45.4688 55.187 46.2963 53.8229 47.63L39.3532 40.3853C39.0714 36.4553 35.8295 33.3438 31.8281 33.3438C27.6436 33.3438 24.25 36.7372 24.25 40.9219C24.25 42.0677 24.5228 43.1423 24.9775 44.1153L10.2244 61.1267C9.39687 60.8175 8.51327 60.625 7.57812 60.625C3.39348 60.625 0 64.0185 0 68.2031C0 72.3878 3.39348 75.7812 7.57812 75.7812C11.7628 75.7812 15.1562 72.3878 15.1562 68.2031C15.1562 67.1952 14.9501 66.2359 14.5924 65.3568L29.585 48.1241C30.2989 48.3454 31.0415 48.5 31.8281 48.5C34.0334 48.5 36.0005 47.5421 37.3858 46.0371L51.5387 53.1333C51.5888 57.277 54.9534 60.625 59.1094 60.625C63.2956 60.625 66.6875 57.2315 66.6875 53.0469C66.6875 52.912 66.6557 52.7862 66.6481 52.6528L86.3603 35.7187C87.2985 36.134 88.329 36.375 89.4219 36.375C93.6081 36.375 97 32.983 97 28.7969C97 24.6122 93.608 21.2188 89.4219 21.2188Z" fill="url(#paint0_linear_108_4807)"/>
  <defs>
    <linearGradient id="paint0_linear_108_4807" x1="48.5" y1="21.2187" x2="48.5" y2="75.7812" gradientUnits="userSpaceOnUse">
      <stop stop-color="#8FAA5A"/>
      <stop offset="0.0001" stop-color="#97AE50"/>
      <stop offset="1" stop-color="#538CA2"/>
    </linearGradient>
  </defs>
</svg>