<svg xmlns="http://www.w3.org/2000/svg" width="24" height="24" viewBox="0 0 24 24" fill="none">
  <path d="M2.5 2.75C2.5 2.55109 2.42098 2.36032 2.28033 2.21967C2.13968 2.07902 1.94891 2 1.75 2C1.55109 2 1.36032 2.07902 1.21967 2.21967C1.07902 2.36032 1 2.55109 1 2.75V21.25C1 21.664 1.336 22 1.75 22H20C20.1989 22 20.3897 21.921 20.5303 21.7803C20.671 21.6397 20.75 21.4489 20.75 21.25C20.75 21.0511 20.671 20.8603 20.5303 20.7197C20.3897 20.579 20.1989 20.5 20 20.5H2.5V2.75Z" fill="#13C999"/>
  <path d="M22.2802 7.78009C22.4126 7.63792 22.4848 7.44987 22.4813 7.25557C22.4779 7.06127 22.3992 6.87588 22.2618 6.73847C22.1244 6.60106 21.939 6.52234 21.7447 6.51892C21.5504 6.51549 21.3623 6.58761 21.2202 6.72009L15.5002 12.4401L11.7802 8.72009C11.6395 8.57964 11.4489 8.50075 11.2502 8.50075C11.0514 8.50075 10.8608 8.57964 10.7202 8.72009L4.72015 14.7201C4.64647 14.7888 4.58736 14.8716 4.54637 14.9636C4.50538 15.0556 4.48334 15.1549 4.48156 15.2556C4.47979 15.3563 4.49831 15.4563 4.53603 15.5497C4.57375 15.6431 4.6299 15.7279 4.70112 15.7991C4.77233 15.8703 4.85717 15.9265 4.95056 15.9642C5.04394 16.0019 5.14397 16.0205 5.24468 16.0187C5.34538 16.0169 5.44469 15.9949 5.53669 15.9539C5.62869 15.9129 5.71149 15.8538 5.78015 15.7801L11.2502 10.3101L14.9702 14.0301C15.1108 14.1705 15.3014 14.2494 15.5002 14.2494C15.6989 14.2494 15.8895 14.1705 16.0302 14.0301L22.2802 7.78009Z" fill="#13C999"/>
</svg>