<svg xmlns="http://www.w3.org/2000/svg" width="33" height="33" viewBox="0 0 33 33" fill="none">
  <path d="M12.2462 8.68928C12.2462 7.62496 12.6669 6.60424 13.4157 5.85165C14.1645 5.09907 15.1801 4.67627 16.2391 4.67627C17.2981 4.67627 18.3137 5.09907 19.0625 5.85165C19.8113 6.60424 20.232 7.62496 20.232 8.68928C20.232 9.75359 19.8113 10.7743 19.0625 11.5269C18.3137 12.2795 17.2981 12.7023 16.2391 12.7023C15.1801 12.7023 14.1645 12.2795 13.4157 11.5269C12.6669 10.7743 12.2462 9.75359 12.2462 8.68928ZM16.2391 6.68478C15.9772 6.68478 15.7178 6.73663 15.4759 6.83737C15.2339 6.9381 15.014 7.08575 14.8288 7.27189C14.6436 7.45802 14.4967 7.67899 14.3965 7.92219C14.2962 8.16539 14.2446 8.42604 14.2446 8.68928C14.2446 8.95251 14.2962 9.21317 14.3965 9.45637C14.4967 9.69956 14.6436 9.92054 14.8288 10.1067C15.014 10.2928 15.2339 10.4405 15.4759 10.5412C15.7178 10.6419 15.9772 10.6938 16.2391 10.6938C16.7681 10.6938 17.2754 10.4826 17.6494 10.1067C18.0234 9.73076 18.2335 9.2209 18.2335 8.68928C18.2335 8.15765 18.0234 7.6478 17.6494 7.27189C17.2754 6.89597 16.7681 6.68478 16.2391 6.68478ZM22.2344 9.69353C22.2344 9.29789 22.312 8.90612 22.4626 8.5406C22.6133 8.17507 22.8341 7.84295 23.1124 7.56319C23.3908 7.28342 23.7212 7.0615 24.0849 6.9101C24.4486 6.75869 24.8384 6.68077 25.2321 6.68077C25.6257 6.68077 26.0155 6.75869 26.3792 6.9101C26.7429 7.0615 27.0734 7.28342 27.3518 7.56319C27.6301 7.84295 27.8509 8.17507 28.0016 8.5406C28.1522 8.90612 28.2297 9.29789 28.2297 9.69353C28.2297 10.4926 27.9139 11.2589 27.3518 11.8239C26.7896 12.3889 26.0271 12.7063 25.2321 12.7063C24.4371 12.7063 23.6746 12.3889 23.1124 11.8239C22.5502 11.2589 22.2344 10.4926 22.2344 9.69353ZM25.2321 8.68928C24.9671 8.68928 24.7129 8.79508 24.5255 8.98342C24.3381 9.17175 24.2329 9.42719 24.2329 9.69353C24.2329 9.95988 24.3381 10.2153 24.5255 10.4037C24.7129 10.592 24.9671 10.6978 25.2321 10.6978C25.4971 10.6978 25.7513 10.592 25.9386 10.4037C26.126 10.2153 26.2313 9.95988 26.2313 9.69353C26.2313 9.42719 26.126 9.17175 25.9386 8.98342C25.7513 8.79508 25.4971 8.68928 25.2321 8.68928ZM7.24611 6.68077C6.45108 6.68077 5.68861 6.99818 5.12644 7.56319C4.56427 8.12819 4.24844 8.8945 4.24844 9.69353C4.24844 10.4926 4.56427 11.2589 5.12644 11.8239C5.68861 12.3889 6.45108 12.7063 7.24611 12.7063C8.04114 12.7063 8.8036 12.3889 9.36577 11.8239C9.92795 11.2589 10.2438 10.4926 10.2438 9.69353C10.2438 8.8945 9.92795 8.12819 9.36577 7.56319C8.8036 6.99818 8.04114 6.68077 7.24611 6.68077ZM6.24689 9.69353C6.24689 9.42719 6.35216 9.17175 6.53955 8.98342C6.72694 8.79508 6.9811 8.68928 7.24611 8.68928C7.51112 8.68928 7.76527 8.79508 7.95266 8.98342C8.14005 9.17175 8.24533 9.42719 8.24533 9.69353C8.24533 9.95988 8.14005 10.2153 7.95266 10.4037C7.76527 10.592 7.51112 10.6978 7.24611 10.6978C6.9811 10.6978 6.72694 10.592 6.53955 10.4037C6.35216 10.2153 6.24689 9.95988 6.24689 9.69353ZM8.78091 14.7148C8.42919 15.3251 8.24441 16.0181 8.24533 16.7233H4.24844V21.7446C4.24828 22.2442 4.37174 22.736 4.6077 23.1757C4.84366 23.6154 5.18471 23.9893 5.60017 24.2636C6.01562 24.5379 6.49242 24.7041 6.98766 24.7471C7.48289 24.7902 7.98101 24.7088 8.43718 24.5103C8.58506 25.1752 8.81688 25.8098 9.11665 26.4024C8.35817 26.7101 7.5361 26.8261 6.72263 26.7399C5.90916 26.6538 5.12917 26.3682 4.45117 25.9083C3.77317 25.4484 3.21788 24.8283 2.83409 24.1023C2.4503 23.3763 2.24973 22.5667 2.25 21.7446V16.7233C2.25 16.1906 2.46055 15.6798 2.83533 15.3031C3.21011 14.9264 3.71842 14.7148 4.24844 14.7148H8.78091ZM23.3615 26.4024C24.12 26.7101 24.9421 26.8261 25.7556 26.7399C26.569 26.6538 27.349 26.3682 28.027 25.9083C28.705 25.4484 29.2603 24.8283 29.6441 24.1023C30.0279 23.3763 30.2285 22.5667 30.2282 21.7446V16.7233C30.2282 16.1906 30.0176 15.6798 29.6429 15.3031C29.2681 14.9264 28.7598 14.7148 28.2297 14.7148H23.6973C24.037 15.3053 24.2329 15.9902 24.2329 16.7233H28.2297V21.7446C28.2299 22.2442 28.1065 22.736 27.8705 23.1757C27.6345 23.6154 27.2935 23.9893 26.878 24.2636C26.4626 24.5379 25.9858 24.7041 25.4905 24.7471C24.9953 24.7902 24.4972 24.7088 24.041 24.5103C23.8911 25.1752 23.6613 25.8098 23.3615 26.4024ZM12.2422 14.7128C11.7122 14.7128 11.2039 14.9244 10.8291 15.3011C10.4543 15.6778 10.2438 16.1886 10.2438 16.7213V22.7489C10.2438 24.3469 10.8754 25.8796 11.9998 27.0096C13.1241 28.1396 14.649 28.7744 16.2391 28.7744C17.8292 28.7744 19.3541 28.1396 20.4784 27.0096C21.6028 25.8796 22.2344 24.3469 22.2344 22.7489V16.7233C22.2344 16.1906 22.0239 15.6798 21.6491 15.3031C21.2743 14.9264 20.766 14.7148 20.236 14.7148H12.2422V14.7128ZM12.2422 16.7213H20.236V22.7489C20.236 23.8143 19.8149 24.836 19.0653 25.5893C18.3158 26.3427 17.2991 26.7659 16.2391 26.7659C15.1791 26.7659 14.1624 26.3427 13.4129 25.5893C12.6633 24.836 12.2422 23.8143 12.2422 22.7489V16.7233V16.7213Z" fill="white"/>
</svg>