<svg xmlns="http://www.w3.org/2000/svg" width="33" height="33" viewBox="0 0 33 33" fill="none">
  <path d="M13.1742 2.66382C12.5541 2.66349 11.9491 2.85649 11.4426 3.21622C10.9361 3.57594 10.5532 4.08468 10.3464 4.67233H9.17735C8.38232 4.67233 7.61985 4.98975 7.05768 5.55475C6.49551 6.11976 6.17969 6.88607 6.17969 7.6851V27.7702C6.17969 28.5693 6.49551 29.3356 7.05768 29.9006C7.61985 30.4656 8.38232 30.783 9.17735 30.783H23.1664C23.9615 30.783 24.7239 30.4656 25.2861 29.9006C25.8483 29.3356 26.1641 28.5693 26.1641 27.7702V7.6851C26.1641 6.88607 25.8483 6.11976 25.2861 5.55475C24.7239 4.98975 23.9615 4.67233 23.1664 4.67233H21.9974C21.7906 4.08468 21.4077 3.57594 20.9012 3.21622C20.3947 2.85649 19.7897 2.66349 19.1696 2.66382H13.1742ZM12.175 5.67659C12.175 5.41024 12.2803 5.15481 12.4677 4.96647C12.6551 4.77814 12.9092 4.67233 13.1742 4.67233H19.1696C19.4346 4.67233 19.6887 4.77814 19.8761 4.96647C20.0635 5.15481 20.1688 5.41024 20.1688 5.67659C20.1688 5.94293 20.0635 6.19837 19.8761 6.3867C19.6887 6.57504 19.4346 6.68084 19.1696 6.68084H13.1742C12.9092 6.68084 12.6551 6.57504 12.4677 6.3867C12.2803 6.19837 12.175 5.94293 12.175 5.67659ZM9.17735 6.68084H10.3464C10.5532 7.26849 10.9361 7.77724 11.4426 8.13696C11.9491 8.49669 12.5541 8.68968 13.1742 8.68936H19.1696C19.7897 8.68968 20.3947 8.49669 20.9012 8.13696C21.4077 7.77724 21.7906 7.26849 21.9974 6.68084H23.1664C23.4315 6.68084 23.6856 6.78665 23.873 6.97499C24.0604 7.16332 24.1657 7.41876 24.1657 7.6851V27.7702C24.1657 28.0366 24.0604 28.292 23.873 28.4803C23.6856 28.6687 23.4315 28.7745 23.1664 28.7745H9.17735C8.91234 28.7745 8.65819 28.6687 8.4708 28.4803C8.2834 28.292 8.17813 28.0366 8.17813 27.7702V7.6851C8.17813 7.41876 8.2834 7.16332 8.4708 6.97499C8.65819 6.78665 8.91234 6.68084 9.17735 6.68084ZM21.8755 16.4302C22.0631 16.2416 22.1685 15.9858 22.1685 15.7192C22.1685 15.4525 22.0631 15.1967 21.8755 15.0081C21.6878 14.8196 21.4333 14.7136 21.168 14.7136C20.9027 14.7136 20.6482 14.8196 20.4606 15.0081L15.1727 20.3247L12.8825 18.0209C12.6948 17.8323 12.4404 17.7264 12.175 17.7264C11.9097 17.7264 11.6552 17.8323 11.4676 18.0209C11.2799 18.2095 11.1745 18.4652 11.1745 18.7319C11.1745 18.9986 11.2799 19.2544 11.4676 19.4429L14.4652 22.4557C14.558 22.5492 14.6683 22.6234 14.7897 22.6741C14.9111 22.7247 15.0412 22.7507 15.1727 22.7507C15.3041 22.7507 15.4343 22.7247 15.5556 22.6741C15.677 22.6234 15.7873 22.5492 15.8801 22.4557L21.8755 16.4302Z" fill="#F8F8F8"/>
</svg>