<svg width="16" height="16" viewBox="0 0 16 16" fill="none" xmlns="http://www.w3.org/2000/svg">
<g id="mdi:information-outline">
<path id="Vector" d="M7.33301 6.00016H8.66634V4.66683H7.33301M7.99967 13.3335C5.05967 13.3335 2.66634 10.9402 2.66634 8.00016C2.66634 5.06016 5.05967 2.66683 7.99967 2.66683C10.9397 2.66683 13.333 5.06016 13.333 8.00016C13.333 10.9402 10.9397 13.3335 7.99967 13.3335ZM7.99967 1.3335C7.1242 1.3335 6.25729 1.50593 5.44845 1.84097C4.63961 2.176 3.90469 2.66706 3.28563 3.28612C2.03539 4.53636 1.33301 6.23205 1.33301 8.00016C1.33301 9.76827 2.03539 11.464 3.28563 12.7142C3.90469 13.3333 4.63961 13.8243 5.44845 14.1594C6.25729 14.4944 7.1242 14.6668 7.99967 14.6668C9.76778 14.6668 11.4635 13.9644 12.7137 12.7142C13.964 11.464 14.6663 9.76827 14.6663 8.00016C14.6663 7.12468 14.4939 6.25778 14.1589 5.44894C13.8238 4.6401 13.3328 3.90517 12.7137 3.28612C12.0947 2.66706 11.3597 2.176 10.5509 1.84097C9.74206 1.50593 8.87515 1.3335 7.99967 1.3335ZM7.33301 11.3335H8.66634V7.3335H7.33301V11.3335Z" fill="#5CB5C1"/>
</g>
</svg>
