<?xml version="1.0" encoding="UTF-8" standalone="no" ?>
<!DOCTYPE svg PUBLIC "-//W3C//DTD SVG 1.1//EN" "http://www.w3.org/Graphics/SVG/1.1/DTD/svg11.dtd">
<svg xmlns="http://www.w3.org/2000/svg" xmlns:xlink="http://www.w3.org/1999/xlink" version="1.1" width="1080" height="1080" viewBox="0 0 40 40" xml:space="preserve">
<desc>Created with Fabric.js 5.2.4</desc>
<defs>
</defs>
<g transform="matrix(1 0 0 1 540 540)" id="1db23120-3094-4be6-bb82-33973ce42d9e"  >
<rect style="stroke: none; stroke-width: 1; stroke-dasharray: none; stroke-linecap: butt; stroke-dashoffset: 0; stroke-linejoin: miter; stroke-miterlimit: 4; fill: rgb(255,255,255); fill-rule: nonzero; opacity: 1; visibility: hidden;" vector-effect="non-scaling-stroke"  x="-540" y="-540" rx="0" ry="0" width="40" height="40" />
</g>
<g transform="matrix(1 0 0 1 540 540)" id="e69b93ac-9db1-4164-9ba8-258450df3e28"  >
</g>
<g transform="matrix(-1 0 0 -1 540 540)" id="6f498e03-5a3f-456b-93bd-09d96e6d6078"  >
<path style="stroke: rgb(0,0,0); stroke-width: 0; stroke-dasharray: none; stroke-linecap: butt; stroke-dashoffset: 0; stroke-linejoin: miter; stroke-miterlimit: 4; fill: rgb(92,181,193); fill-rule: nonzero; opacity: 1;" vector-effect="non-scaling-stroke"  transform=" translate(-19, -20)" d="M 21.6726 26.9999 C 21.5018 27.0004 21.3331 26.9675 21.1788 26.9034 C 21.0245 26.8394 20.8886 26.746 20.781 26.63 L 15.26 20.6305 C 15.0919 20.4516 15 20.2272 15 19.9956 C 15 19.764 15.0919 19.5396 15.26 19.3607 L 20.9753 13.3612 C 21.1694 13.157 21.4482 13.0286 21.7504 13.0042 C 22.0527 12.9799 22.3536 13.0615 22.5871 13.2312 C 22.8205 13.401 22.9673 13.6448 22.9952 13.9092 C 23.023 14.1736 22.9297 14.4369 22.7357 14.6411 L 17.6262 20.0006 L 22.5642 25.3601 C 22.704 25.5069 22.7928 25.6856 22.8201 25.8751 C 22.8474 26.0646 22.812 26.257 22.7182 26.4296 C 22.6244 26.6021 22.4761 26.7475 22.2908 26.8485 C 22.1055 26.9496 21.891 27.0022 21.6726 26.9999 Z" stroke-linecap="round" />
</g>
</svg>