<svg xmlns="http://www.w3.org/2000/svg" xmlns:xlink="http://www.w3.org/1999/xlink" version="1.1" width="40" height="40" viewBox="0 0 256 256" xml:space="preserve">

<defs>
</defs>
<g style="stroke: none; stroke-width: 0; stroke-dasharray: none; stroke-linecap: butt; stroke-linejoin: miter; stroke-miterlimit: 10; fill: none; fill-rule: nonzero; opacity: 1;" transform="translate(1.4065934065934016 1.4065934065934016) scale(2.81 2.81)" >
	<path d="M 79.594 90 H 65.346 c -0.77 0 -1.47 -0.441 -1.803 -1.135 c -0.967 -2.013 -2.947 -3.264 -5.17 -3.264 s -4.203 1.251 -5.168 3.264 C 52.872 89.559 52.171 90 51.401 90 H 38.599 c -0.769 0 -1.47 -0.441 -1.803 -1.135 c -0.966 -2.013 -2.947 -3.264 -5.169 -3.264 s -4.203 1.251 -5.169 3.264 C 26.125 89.559 25.423 90 24.654 90 H 10.407 c -1.104 0 -2 -0.896 -2 -2 V 2 c 0 -1.104 0.896 -2 2 -2 h 69.187 c 1.104 0 2 0.896 2 2 v 86 C 81.594 89.104 80.698 90 79.594 90 z M 66.506 86 h 11.088 V 4 H 12.407 v 82 h 11.087 c 1.784 -2.707 4.852 -4.398 8.133 -4.398 s 6.349 1.691 8.133 4.398 H 50.24 c 1.784 -2.707 4.853 -4.398 8.133 -4.398 S 64.722 83.293 66.506 86 z" style="stroke: none; stroke-width: 1; stroke-dasharray: none; stroke-linecap: butt; stroke-linejoin: miter; stroke-miterlimit: 10; fill: rgb(110,175,211); fill-rule: nonzero; opacity: 1;" transform=" matrix(1 0 0 1 0 0) " stroke-linecap="round" />
	<path d="M 66.162 22.994 H 23.838 c -1.104 0 -2 -0.896 -2 -2 s 0.896 -2 2 -2 h 42.324 c 1.104 0 2 0.896 2 2 S 67.267 22.994 66.162 22.994 z" style="stroke: none; stroke-width: 1; stroke-dasharray: none; stroke-linecap: butt; stroke-linejoin: miter; stroke-miterlimit: 10; fill: rgb(110,175,211); fill-rule: nonzero; opacity: 1;" transform=" matrix(1 0 0 1 0 0) " stroke-linecap="round" />
	<path d="M 66.162 36.367 H 23.838 c -1.104 0 -2 -0.896 -2 -2 s 0.896 -2 2 -2 h 42.324 c 1.104 0 2 0.896 2 2 S 67.267 36.367 66.162 36.367 z" style="stroke: none; stroke-width: 1; stroke-dasharray: none; stroke-linecap: butt; stroke-linejoin: miter; stroke-miterlimit: 10; fill: rgb(110,175,211); fill-rule: nonzero; opacity: 1;" transform=" matrix(1 0 0 1 0 0) " stroke-linecap="round" />
	<path d="M 66.162 49.74 H 23.838 c -1.104 0 -2 -0.896 -2 -2 s 0.896 -2 2 -2 h 42.324 c 1.104 0 2 0.896 2 2 S 67.267 49.74 66.162 49.74 z" style="stroke: none; stroke-width: 1; stroke-dasharray: none; stroke-linecap: butt; stroke-linejoin: miter; stroke-miterlimit: 10; fill: rgb(110,175,211); fill-rule: nonzero; opacity: 1;" transform=" matrix(1 0 0 1 0 0) " stroke-linecap="round" />
	<path d="M 66.162 63.114 H 49.248 c -1.104 0 -2 -0.896 -2 -2 s 0.896 -2 2 -2 h 16.914 c 1.104 0 2 0.896 2 2 S 67.267 63.114 66.162 63.114 z" style="stroke: none; stroke-width: 1; stroke-dasharray: none; stroke-linecap: butt; stroke-linejoin: miter; stroke-miterlimit: 10; fill: rgb(110,175,211); fill-rule: nonzero; opacity: 1;" transform=" matrix(1 0 0 1 0 0) " stroke-linecap="round" />
</g>
</svg>