<svg xmlns="http://www.w3.org/2000/svg" width="144" height="58" viewBox="0 0 144 58" fill="none">
  <path fill-rule="evenodd" clip-rule="evenodd" d="M27.528 20.3645C22.266 20.3645 18 23.8145 18 28.0647V74.2708C18 78.5234 22.266 81.971 27.528 81.971H59.295V87.1052H46.587V92.2395H97.413V87.1052H84.705V81.971H116.472C121.734 81.971 126 78.5234 126 74.2708V28.0647C126 23.8145 121.734 20.3645 116.472 20.3645H27.528ZM65.646 87.1052H78.354V81.971H65.646V87.1052ZM24.354 28.0647C24.354 26.6488 25.776 25.4988 27.528 25.4988H116.472C118.224 25.4988 119.646 26.6488 119.646 28.0647V74.2708C119.646 75.6891 118.224 76.8367 116.472 76.8367H27.528C25.776 76.8367 24.354 75.6867 24.354 74.2708V28.0647ZM46.587 30.633H40.236V35.7673H33.882V40.8992H40.236V46.0335H46.587V40.8992H52.941V35.7697H46.587V30.633ZM37.059 51.1677C35.304 51.1677 33.879 52.3177 33.879 53.7361V64.0022C33.879 65.4205 35.304 66.5705 37.059 66.5705H49.764C51.519 66.5705 52.941 65.4205 52.941 64.0022V53.7385C52.941 52.3201 51.519 51.1701 49.764 51.1701L37.059 51.1677ZM40.236 61.4363V56.302H46.587V61.4363H40.236ZM62.472 33.199C62.472 31.7806 63.894 30.633 65.649 30.633H78.354C80.109 30.633 81.531 31.783 81.531 33.199V43.4675C81.531 44.8859 80.109 46.0335 78.351 46.0335H65.649C63.894 46.0335 62.469 44.8835 62.469 43.4675L62.472 33.199ZM68.823 35.7673V40.8992H75.177V35.7697H68.823V35.7673ZM65.649 51.1677C63.894 51.1677 62.469 52.3177 62.469 53.7361V64.0022C62.469 65.4205 63.894 66.5705 65.649 66.5705H78.354C80.109 66.5705 81.531 65.4205 81.531 64.0022V53.7385C81.531 52.3201 80.109 51.1701 78.351 51.1701L65.649 51.1677ZM68.823 61.4363V56.302H75.177V61.4363H68.823ZM91.059 33.199C91.059 31.7806 92.481 30.633 94.236 30.633H106.941C108.696 30.633 110.118 31.783 110.118 33.199V43.4675C110.118 44.8859 108.696 46.0335 106.941 46.0335H94.236C92.481 46.0335 91.059 44.8835 91.059 43.4675V33.199ZM97.413 35.7673V40.8992H103.764V35.7697H97.413V35.7673Z" fill="#D3E3EC"/>
</svg>