<svg xmlns="http://www.w3.org/2000/svg" width="69" height="115" viewBox="0 0 69 115" fill="none">
  <path d="M93.8689 74.2708L85.1481 68.0417C86.5856 62.8667 86.6814 57.2604 85.1481 51.6542L93.8689 45.5208L86.921 33.5417L77.1939 37.95C73.4085 34.1167 68.6168 31.1458 63.0106 29.7562L62.0523 19.1667H48.1564L47.1981 29.7562C41.5918 31.1458 36.8002 34.1167 33.0148 37.95L23.2877 33.5417L16.3398 45.5208L25.0606 51.6542C23.5273 57.2604 23.6231 62.8667 25.0606 68.0417L16.3398 74.2708L23.2877 86.25L33.0148 81.7937C36.8002 85.5792 41.5918 88.4542 47.1981 89.9396L48.1564 100.625H62.0523L63.0106 89.9396C68.6168 88.4542 73.4085 85.5792 77.1939 81.7937L86.921 86.25L93.8689 74.2708ZM64.6877 14.375C65.9814 14.375 67.0835 15.3333 67.0835 16.5792L67.946 26.3542C71.5877 27.6958 74.846 29.6604 77.7689 32.0083L86.6335 27.8396C87.7356 27.2646 89.1252 27.6479 89.796 28.75L99.3793 45.5208C100.05 46.5271 99.6668 47.9167 98.6127 48.6354L90.6106 54.2417C91.2335 58.075 91.1856 61.8604 90.6106 65.55L98.6127 71.1562C99.6668 71.875 100.05 73.2646 99.3793 74.2708L89.796 91.0417C89.1252 92.0479 87.7356 92.4313 86.6335 91.8562L77.7689 87.7354C74.846 90.0833 71.5877 92 67.946 93.4375L67.0835 103.021C67.0835 104.41 65.9814 105.417 64.6877 105.417H45.521C44.8856 105.417 44.2762 105.164 43.8269 104.715C43.3776 104.266 43.1252 103.656 43.1252 103.021L42.2627 93.4375C38.621 92 35.3627 90.0833 32.4398 87.7354L23.5752 91.8562C22.4731 92.4313 21.0835 92.0479 20.4127 91.0417L10.8293 74.2708C10.1585 73.2646 10.5418 71.875 11.596 71.1562L19.5981 65.55C19.0231 61.8604 18.9752 58.075 19.5981 54.2417L11.596 48.6354C10.5418 47.9167 10.1585 46.5271 10.8293 45.5208L20.4127 28.75C21.0835 27.6479 22.4731 27.2646 23.5752 27.8396L32.4398 32.0083C35.3627 29.6604 38.621 27.6958 42.2627 26.3542L43.1252 16.5792C43.1252 15.3333 44.2273 14.375 45.521 14.375H64.6877ZM55.1043 43.125C59.5522 43.125 63.818 44.8919 66.9631 48.0371C70.1083 51.1822 71.8752 55.4479 71.8752 59.8958C71.8752 64.3437 70.1083 68.6095 66.9631 71.7546C63.818 74.8997 59.5522 76.6667 55.1043 76.6667C50.6564 76.6667 46.3907 74.8997 43.2456 71.7546C40.1004 68.6095 38.3335 64.3437 38.3335 59.8958C38.3335 55.4479 40.1004 51.1822 43.2456 48.0371C46.3907 44.8919 50.6564 43.125 55.1043 43.125ZM55.1043 47.9167C51.9273 47.9167 48.8803 49.1788 46.6338 51.4253C44.3873 53.6718 43.1252 56.7188 43.1252 59.8958C43.1252 63.0729 44.3873 66.1199 46.6338 68.3664C48.8803 70.6129 51.9273 71.875 55.1043 71.875C58.2814 71.875 61.3284 70.6129 63.5749 68.3664C65.8214 66.1199 67.0835 63.0729 67.0835 59.8958C67.0835 56.7188 65.8214 53.6718 63.5749 51.4253C61.3284 49.1788 58.2814 47.9167 55.1043 47.9167Z" fill="#D3E3EC"/>
</svg>