<svg width="30" height="30" viewBox="0 0 30 30" fill="none" xmlns="http://www.w3.org/2000/svg">
<path d="M21.9196 17.1373C22.278 17.1373 22.6218 16.9942 22.8753 16.7395C23.1287 16.4847 23.2711 16.1392 23.2711 15.779C23.2711 15.4187 23.1287 15.0732 22.8753 14.8184C22.6218 14.5637 22.278 14.4206 21.9196 14.4206C21.5611 14.4206 21.2173 14.5637 20.9639 14.8184C20.7104 15.0732 20.568 15.4187 20.568 15.779C20.568 16.1392 20.7104 16.4847 20.9639 16.7395C21.2173 16.9942 21.5611 17.1373 21.9196 17.1373ZM21.9196 22.5709C22.278 22.5709 22.6218 22.4278 22.8753 22.173C23.1287 21.9183 23.2711 21.5728 23.2711 21.2125C23.2711 20.8522 23.1287 20.5067 22.8753 20.252C22.6218 19.9972 22.278 19.8541 21.9196 19.8541C21.5611 19.8541 21.2173 19.9972 20.9639 20.252C20.7104 20.5067 20.568 20.8522 20.568 21.2125C20.568 21.5728 20.7104 21.9183 20.9639 22.173C21.2173 22.4278 21.5611 22.5709 21.9196 22.5709ZM16.5133 15.779C16.5133 16.1392 16.3709 16.4847 16.1174 16.7395C15.8639 16.9942 15.5202 17.1373 15.1617 17.1373C14.8032 17.1373 14.4595 16.9942 14.206 16.7395C13.9525 16.4847 13.8101 16.1392 13.8101 15.779C13.8101 15.4187 13.9525 15.0732 14.206 14.8184C14.4595 14.5637 14.8032 14.4206 15.1617 14.4206C15.5202 14.4206 15.8639 14.5637 16.1174 14.8184C16.3709 15.0732 16.5133 15.4187 16.5133 15.779ZM16.5133 21.2125C16.5133 21.5728 16.3709 21.9183 16.1174 22.173C15.8639 22.4278 15.5202 22.5709 15.1617 22.5709C14.8032 22.5709 14.4595 22.4278 14.206 22.173C13.9525 21.9183 13.8101 21.5728 13.8101 21.2125C13.8101 20.8522 13.9525 20.5067 14.206 20.252C14.4595 19.9972 14.8032 19.8541 15.1617 19.8541C15.5202 19.8541 15.8639 19.9972 16.1174 20.252C16.3709 20.5067 16.5133 20.8522 16.5133 21.2125ZM8.40382 17.1373C8.76228 17.1373 9.10606 16.9942 9.35953 16.7395C9.613 16.4847 9.7554 16.1392 9.7554 15.779C9.7554 15.4187 9.613 15.0732 9.35953 14.8184C9.10606 14.5637 8.76228 14.4206 8.40382 14.4206C8.04536 14.4206 7.70158 14.5637 7.44811 14.8184C7.19464 15.0732 7.05225 15.4187 7.05225 15.779C7.05225 16.1392 7.19464 16.4847 7.44811 16.7395C7.70158 16.9942 8.04536 17.1373 8.40382 17.1373ZM8.40382 22.5709C8.76228 22.5709 9.10606 22.4278 9.35953 22.173C9.613 21.9183 9.7554 21.5728 9.7554 21.2125C9.7554 20.8522 9.613 20.5067 9.35953 20.252C9.10606 19.9972 8.76228 19.8541 8.40382 19.8541C8.04536 19.8541 7.70158 19.9972 7.44811 20.252C7.19464 20.5067 7.05225 20.8522 7.05225 21.2125C7.05225 21.5728 7.19464 21.9183 7.44811 22.173C7.70158 22.4278 8.04536 22.5709 8.40382 22.5709Z" fill="#20899C"/>
<path fill-rule="evenodd" clip-rule="evenodd" d="M8.40412 0.497124C8.67297 0.497124 8.9308 0.60446 9.1209 0.79552C9.31101 0.98658 9.4178 1.24571 9.4178 1.51591V2.55236C10.3125 2.5347 11.2978 2.5347 12.3818 2.5347H17.9408C19.0261 2.5347 20.0114 2.5347 20.9062 2.55236V1.51591C20.9062 1.24571 21.013 0.98658 21.2031 0.79552C21.3932 0.60446 21.651 0.497124 21.9199 0.497124C22.1887 0.497124 22.4465 0.60446 22.6367 0.79552C22.8268 0.98658 22.9335 1.24571 22.9335 1.51591V2.6393C23.285 2.66647 23.6174 2.70043 23.9324 2.74254C25.5164 2.95716 26.7991 3.40814 27.8114 4.42422C28.8224 5.44165 29.2711 6.73076 29.4846 8.32278C29.6914 9.87134 29.6914 11.8478 29.6914 14.3445V17.2134C29.6914 19.7101 29.6914 21.6879 29.4846 23.2351C29.2711 24.8272 28.8224 26.1163 27.8114 27.1337C26.7991 28.1498 25.5164 28.6008 23.9324 28.8154C22.3916 29.0232 20.425 29.0232 17.9408 29.0232H12.3832C9.89896 29.0232 7.93107 29.0232 6.39163 28.8154C4.80758 28.6008 3.52494 28.1498 2.51261 27.1337C1.50163 26.1163 1.05291 24.8272 0.839359 23.2351C0.632568 21.6866 0.632568 19.7101 0.632568 17.2134V14.3445C0.632568 11.8478 0.632568 9.86999 0.839359 8.32278C1.05291 6.73076 1.50163 5.44165 2.51261 4.42422C3.52494 3.40814 4.80758 2.95716 6.39163 2.74254C6.70654 2.70043 7.04038 2.66647 7.39044 2.6393V1.51591C7.39044 1.24571 7.49724 0.98658 7.68734 0.79552C7.87744 0.60446 8.13528 0.497124 8.40412 0.497124ZM6.66059 4.76245C5.30226 4.94584 4.51835 5.29087 3.94663 5.86546C3.37491 6.44006 3.03161 7.22792 2.84915 8.59446C2.81806 8.82539 2.79238 9.0699 2.77076 9.32663H27.5532C27.5316 9.06854 27.5059 8.82539 27.4748 8.5931C27.2924 7.22792 26.9491 6.44006 26.3774 5.86546C25.8056 5.29087 25.0217 4.94584 23.662 4.76245C22.274 4.575 20.4426 4.57228 17.8651 4.57228H12.4588C9.88139 4.57228 8.05136 4.575 6.66059 4.76245ZM2.65993 14.4206C2.65993 13.2605 2.65993 12.2512 2.6775 11.3642H27.6465C27.6641 12.2512 27.6641 13.2605 27.6641 14.4206V17.1373C27.6641 19.7278 27.6614 21.5684 27.4748 22.9648C27.2924 24.33 26.9491 25.1179 26.3774 25.6925C25.8056 26.2671 25.0217 26.6121 23.662 26.7955C22.274 26.9829 20.4426 26.9856 17.8651 26.9856H12.4588C9.88139 26.9856 8.05136 26.9829 6.66059 26.7955C5.30226 26.6121 4.51835 26.2671 3.94663 25.6925C3.37491 25.1179 3.03161 24.33 2.84915 22.9635C2.66263 21.5684 2.65993 19.7278 2.65993 17.1373V14.4206Z" fill="#20899C"/>
</svg>
