<svg width="33" height="33" viewBox="0 0 33 33" fill="none" xmlns="http://www.w3.org/2000/svg">
<path d="M13.1961 2.15752C12.567 2.15719 11.9532 2.35298 11.4394 2.71792C10.9256 3.08285 10.5371 3.59895 10.3274 4.1951H9.14139C8.33485 4.1951 7.56135 4.51711 6.99104 5.09029C6.42074 5.66347 6.10034 6.44087 6.10034 7.25147V27.6273C6.10034 28.4379 6.42074 29.2153 6.99104 29.7884C7.56135 30.3616 8.33485 30.6836 9.14139 30.6836H23.3329C24.1395 30.6836 24.913 30.3616 25.4833 29.7884C26.0536 29.2153 26.374 28.4379 26.374 27.6273V7.25147C26.374 6.44087 26.0536 5.66347 25.4833 5.09029C24.913 4.51711 24.1395 4.1951 23.3329 4.1951H22.1469C21.9372 3.59895 21.5487 3.08285 21.0349 2.71792C20.5211 2.35298 19.9073 2.15719 19.2782 2.15752H13.1961ZM12.1824 5.21389C12.1824 4.94369 12.2892 4.68456 12.4793 4.4935C12.6694 4.30244 12.9273 4.1951 13.1961 4.1951H19.2782C19.547 4.1951 19.8049 4.30244 19.995 4.4935C20.1851 4.68456 20.2919 4.94369 20.2919 5.21389C20.2919 5.48409 20.1851 5.74322 19.995 5.93428C19.8049 6.12534 19.547 6.23268 19.2782 6.23268H13.1961C12.9273 6.23268 12.6694 6.12534 12.4793 5.93428C12.2892 5.74322 12.1824 5.48409 12.1824 5.21389ZM9.14139 6.23268H10.3274C10.5371 6.82883 10.9256 7.34494 11.4394 7.70987C11.9532 8.0748 12.567 8.27059 13.1961 8.27026H19.2782C19.9073 8.27059 20.5211 8.0748 21.0349 7.70987C21.5487 7.34494 21.9372 6.82883 22.1469 6.23268H23.3329C23.6018 6.23268 23.8596 6.34002 24.0497 6.53108C24.2398 6.72214 24.3466 6.98127 24.3466 7.25147V27.6273C24.3466 27.8975 24.2398 28.1566 24.0497 28.3476C23.8596 28.5387 23.6018 28.646 23.3329 28.646H9.14139C8.87254 28.646 8.61471 28.5387 8.4246 28.3476C8.2345 28.1566 8.1277 27.8975 8.1277 27.6273V7.25147C8.1277 6.98127 8.2345 6.72214 8.4246 6.53108C8.61471 6.34002 8.87254 6.23268 9.14139 6.23268ZM22.0232 16.1231C22.2136 15.9318 22.3205 15.6723 22.3205 15.4018C22.3205 15.1312 22.2136 14.8718 22.0232 14.6805C21.8329 14.4892 21.5747 14.3817 21.3056 14.3817C21.0364 14.3817 20.7782 14.4892 20.5879 14.6805L15.2235 20.074L12.9001 17.7368C12.7098 17.5455 12.4516 17.4381 12.1824 17.4381C11.9132 17.4381 11.6551 17.5455 11.4647 17.7368C11.2744 17.9281 11.1675 18.1876 11.1675 18.4582C11.1675 18.7287 11.2744 18.9882 11.4647 19.1795L14.5058 22.2358C14.5999 22.3307 14.7118 22.406 14.835 22.4573C14.9581 22.5087 15.0901 22.5351 15.2235 22.5351C15.3568 22.5351 15.4888 22.5087 15.612 22.4573C15.7351 22.406 15.847 22.3307 15.9412 22.2358L22.0232 16.1231Z" fill="#38748F"/>
</svg>
