<svg xmlns="http://www.w3.org/2000/svg" width="11" height="18" viewBox="0 0 11 18" fill="none">
  <path d="M0.000425314 4.572C-0.00231258 4.63659 0.00819044 4.70105 0.0312881 4.76143C0.0543858 4.82181 0.0895898 4.87683 0.134736 4.9231C0.179882 4.96937 0.234016 5.00591 0.293809 5.03049C0.353602 5.05506 0.417789 5.06715 0.482425 5.066H2.13243C2.40843 5.066 2.62842 4.84 2.66442 4.566C2.84442 3.254 3.74442 2.298 5.34842 2.298C6.72042 2.298 7.97643 2.984 7.97643 4.634C7.97643 5.904 7.22843 6.488 6.04642 7.376C4.70043 8.354 3.63443 9.496 3.71043 11.35L3.71642 11.784C3.71852 11.9152 3.77213 12.0403 3.86567 12.1324C3.95921 12.2244 4.08519 12.276 4.21642 12.276H5.83842C5.97103 12.276 6.09821 12.2233 6.19198 12.1296C6.28575 12.0358 6.33842 11.9086 6.33842 11.776V11.566C6.33842 10.13 6.88443 9.712 8.35843 8.594C9.57643 7.668 10.8464 6.64 10.8464 4.482C10.8464 1.46 8.29443 0 5.50043 0C2.96643 0 0.190425 1.18 0.000425314 4.572ZM3.11442 16.098C3.11442 17.164 3.96443 17.952 5.13443 17.952C6.35243 17.952 7.19043 17.164 7.19043 16.098C7.19043 14.994 6.35043 14.218 5.13243 14.218C3.96443 14.218 3.11442 14.994 3.11442 16.098Z" fill="#456EFE"/>
</svg>