<svg width="48" height="48" viewBox="0 0 48 48" fill="none" xmlns="http://www.w3.org/2000/svg">
<g id="ri:lock-2-fill">
<path id="Vector" d="M36 16H40C40.5304 16 41.0391 16.2107 41.4142 16.5858C41.7893 16.9609 42 17.4696 42 18V42C42 42.5304 41.7893 43.0391 41.4142 43.4142C41.0391 43.7893 40.5304 44 40 44H8C7.46957 44 6.96086 43.7893 6.58579 43.4142C6.21071 43.0391 6 42.5304 6 42V18C6 17.4696 6.21071 16.9609 6.58579 16.5858C6.96086 16.2107 7.46957 16 8 16H12V14C12 10.8174 13.2643 7.76515 15.5147 5.51472C17.7652 3.26428 20.8174 2 24 2C27.1826 2 30.2348 3.26428 32.4853 5.51472C34.7357 7.76515 36 10.8174 36 14V16ZM22 31.464V36H26V31.464C26.7625 31.0237 27.3584 30.3441 27.6954 29.5306C28.0323 28.7171 28.0914 27.8152 27.8635 26.9647C27.6356 26.1142 27.1335 25.3627 26.4349 24.8266C25.7364 24.2906 24.8805 24 24 24C23.1195 24 22.2636 24.2906 21.5651 24.8266C20.8665 25.3627 20.3644 26.1142 20.1365 26.9647C19.9086 27.8152 19.9677 28.7171 20.3046 29.5306C20.6415 30.3441 21.2375 31.0237 22 31.464ZM32 16V14C32 11.8783 31.1571 9.84344 29.6569 8.34315C28.1566 6.84285 26.1217 6 24 6C21.8783 6 19.8434 6.84285 18.3431 8.34315C16.8429 9.84344 16 11.8783 16 14V16H32Z" fill="#40845D"/>
</g>
</svg>
